<svg xmlns="http://www.w3.org/2000/svg" version="1.1" xmlns:xlink="http://www.w3.org/1999/xlink" xmlns:svgjs="http://svgjs.dev/svgjs" width="1000" height="1125" viewBox="0 0 1000 1125"><g transform="matrix(1,0,0,1,0,0)"><svg viewBox="0 0 320 360" data-background-color="#ffffff" preserveAspectRatio="xMidYMid meet" height="1125" width="1000" xmlns="http://www.w3.org/2000/svg" xmlns:xlink="http://www.w3.org/1999/xlink"><g id="tight-bounds" transform="matrix(1,0,0,1,0,0)"><svg viewBox="0 0 320 360" height="360" width="320"><g><svg></svg></g><g><svg viewBox="0 0 320 360" height="360" width="320"><g><path xmlns="http://www.w3.org/2000/svg" d="M39.474 120.804l2.852-5.236c22.696-41.686 66.871-69.977 117.674-69.972 50.817 0 95.006 28.305 117.697 70.005l2.852 5.241 8.173-31.337 31.03 7.961-2.654-4.792c-30.586-55.251-89.468-92.674-157.098-92.674-67.631 0-126.508 37.423-157.103 92.674l-2.654 4.787 31.063-7.956zM160 4.721c63.839 0 119.567 34.288 150.073 85.389l-24.731-6.341-6.417 24.608c-24.217-40.411-68.381-67.503-118.925-67.503-50.525 0-94.68 27.078-118.897 67.465l-6.412-24.575-24.764 6.341c30.506-51.101 86.238-85.384 150.073-85.384zM280.526 239.191l-2.852 5.236c-22.696 41.691-66.871 69.977-117.674 69.977-50.817 0-95.006-28.301-117.697-70.005l-2.852-5.236-8.173 31.332-31.035-7.961 2.654 4.792c30.591 55.246 89.468 92.674 157.103 92.674 67.631 0 126.513-37.427 157.103-92.674l2.654-4.787-31.063 7.956zM160 355.279c-63.839 0-119.567-34.288-150.073-85.389l24.727 6.346 6.421-24.609c24.217 40.402 68.381 67.499 118.925 67.499 50.529 0 94.68-27.078 118.901-67.47l6.408 24.575 24.764-6.341c-30.506 51.096-86.233 85.388-150.073 85.388z" fill="#50a060" fill-rule="nonzero" stroke="none" stroke-width="1" stroke-linecap="butt" stroke-linejoin="miter" stroke-miterlimit="10" stroke-dasharray="" stroke-dashoffset="0" font-family="none" font-weight="none" font-size="none" text-anchor="none" style="mix-blend-mode: normal" data-fill-palette-color="tertiary"></path></g><g transform="matrix(1,0,0,1,70,90)"><svg viewBox="0 0 180 180" height="180" width="180"><g><svg viewBox="0 0 180 180" height="180" width="180"><g><svg viewBox="0 0 180 180" height="180" width="180"><g id="textblocktransform"><svg viewBox="0 0 180 180" height="180" width="180" id="textblock"><g><svg viewBox="0 0 180 180" height="180" width="180"><g transform="matrix(1,0,0,1,57.73529130379455,47.57359312880715)"><svg viewBox="0 0 64.5294173924109 84.8528137423857" height="84.8528137423857" width="64.5294173924109"><g><svg xmlns="http://www.w3.org/2000/svg" xmlns:xlink="http://www.w3.org/1999/xlink" version="1.1" x="0" y="0" viewBox="12.914998054504395 1.2360000610351562 74.17100524902344 97.53099822998047" enable-background="new 0 0 100 100" xml:space="preserve" height="84.8528137423857" width="64.5294173924109" class="icon-o-0" data-fill-palette-color="accent" id="o-0"><circle cx="55.011" cy="10.478" r="9.2" fill="#50a060" data-fill-palette-color="accent"></circle><path d="M83.341 34.146c2.067 0 3.745-1.674 3.745-3.742v-1.885c0-2.067-1.678-3.745-3.745-3.745h-2.875v-1.97c3.324-1.078 3.667-6.626 3.667-6.626v-2.303h-9.95v2.303c0 0 0.556 5.558 3.927 6.629v1.967H50.9c-3.873 0-7.016 3.142-7.016 7.016v66.977h9.059v-30.32h4.36v30.32h8.835v-64.62h11.971v43.038c-0.738 0.42-1.778 0.893-2.984 1.1-2.41 0.418-2.932 0-2.932 0s0 5.236 0 11.207c0 5.969 7.094 9.275 7.094 9.275s7.095-3.307 7.095-9.275c0-5.971 0-11.207 0-11.207s-0.521 0.418-2.931 0c-1.207-0.207-2.247-0.68-2.985-1.1V34.146H83.341zM76.199 16.177h6.048c0 0-0.336 4.678-3.092 4.678C76.4 20.855 76.199 16.177 76.199 16.177z" fill="#50a060" data-fill-palette-color="accent"></path><path d="M26.922 35.792l6.323 11.735-2.953 0.038 5.671 8.716h-3.652l3.774 6.605H17.601l3.897-6.625-3.443 0.02 6.084-8.794-3.129-0.083L26.922 35.792zM27.269 31.585h-0.695l-6.1 7.977h2.073l-5.988 9.005 3.389 0.063-7.033 9.119 4.195 0.063-4.195 7.285h12.411v6.611h-6.143l3.135 4.158h10.101l3.078-4.158h-6.865v-6.611h12.3l-4.08-7.162 4.08-0.186-6.385-9.181h2.738l-6.049-9.005h2.134L27.269 31.585 27.269 31.585z" fill="#50a060" data-fill-palette-color="accent"></path></svg></g></svg></g><path d="M21.095 111.964l3.12-1.129 2.659 7.346-3.12 1.129-0.655-1.809-10.954 3.964 1.353 3.739c0.036 0.1 0.099 0.187 0.19 0.26 0.09 0.073 0.194 0.127 0.313 0.162 0.115 0.043 0.233 0.068 0.355 0.073 0.122 0.005 0.233-0.01 0.333-0.046v0l2.295-0.831 1.33 3.673-6.307 2.282-4.967-13.727 3.101-1.123 0.641 1.771 10.954-3.963zM28.333 129.432l2.661-1.981 4.374 5.875-2.662 1.981-1-1.343-6.074 4.522c-0.554 0.413-0.98 0.825-1.278 1.237-0.288 0.413-0.472 0.823-0.551 1.23-0.075 0.412-0.053 0.814 0.066 1.206 0.118 0.392 0.314 0.772 0.587 1.14v0c0.282 0.378 0.585 0.686 0.912 0.924 0.33 0.243 0.695 0.389 1.096 0.438 0.401 0.049 0.842-0.014 1.324-0.19 0.482-0.176 1.018-0.485 1.61-0.925v0l6.075-4.522-1.154-1.551 2.661-1.981 4.374 5.875-2.662 1.981-0.875-1.175-5.699 4.243c-1.028 0.766-2.054 1.301-3.077 1.607-1.021 0.297-2.002 0.393-2.941 0.288-0.939-0.104-1.817-0.399-2.633-0.884-0.807-0.484-1.509-1.125-2.104-1.925v0c-0.587-0.789-0.995-1.636-1.222-2.543-0.229-0.898-0.26-1.807-0.092-2.727 0.163-0.916 0.522-1.813 1.078-2.691 0.556-0.878 1.327-1.683 2.312-2.417v0l5.875-4.373zM54.282 158.042l-3.019-2.185c0.013-0.778-0.048-1.384-0.184-1.819-0.135-0.426-0.337-0.81-0.606-1.152-0.273-0.337-0.595-0.64-0.966-0.908v0c-0.543-0.393-1.14-0.641-1.788-0.741-0.643-0.097-1.287-0.058-1.93 0.116-0.648 0.17-1.272 0.465-1.87 0.884-0.595 0.414-1.118 0.933-1.571 1.558v0c-0.456 0.63-0.789 1.294-1.001 1.994-0.213 0.691-0.302 1.368-0.266 2.034 0.039 0.66 0.205 1.28 0.498 1.861 0.289 0.586 0.713 1.082 1.272 1.487v0c0.393 0.284 0.803 0.483 1.23 0.595 0.432 0.116 0.863 0.173 1.291 0.172 0.426-0.011 0.842-0.075 1.246-0.192 0.405-0.117 0.771-0.283 1.098-0.497v0l2.511 3.158c-0.668 0.492-1.393 0.87-2.173 1.133-0.782 0.254-1.592 0.381-2.43 0.382-0.837 0.001-1.682-0.135-2.534-0.408-0.851-0.263-1.675-0.683-2.471-1.259v0c-0.667-0.483-1.241-1.038-1.722-1.666-0.481-0.627-0.864-1.298-1.15-2.013-0.295-0.714-0.488-1.461-0.58-2.241-0.093-0.789-0.086-1.575 0.022-2.358 0.106-0.792 0.311-1.579 0.614-2.361 0.305-0.772 0.714-1.513 1.228-2.223v0c0.767-1.06 1.672-1.918 2.713-2.575 1.045-0.662 2.137-1.106 3.276-1.331 1.148-0.227 2.3-0.226 3.455 0.003 1.164 0.228 2.246 0.704 3.247 1.429v0c0.802 0.58 1.402 1.167 1.802 1.759 0.405 0.596 0.723 1.426 0.954 2.488v0l2.188 1.583zM61.396 159.267l1.19-3.437 13.729 4.754-2.038 5.885-3.71-1.285 0.848-2.448-4.435-1.536-1.18 3.409 3.427 1.187-1.141 3.295-3.428-1.187-1.385 4.002 4.435 1.536 1.063-3.07 3.71 1.285-2.143 6.187-13.728-4.754 1.079-3.117 1.808 0.626 3.707-10.706zM80.778 164.408l0.131-3.316 9.648 0.383c0.943 0.037 1.777 0.21 2.503 0.518 0.725 0.315 1.331 0.714 1.817 1.199 0.492 0.492 0.859 1.055 1.1 1.689 0.247 0.635 0.358 1.287 0.331 1.958v0c-0.024 0.617-0.112 1.156-0.263 1.615-0.151 0.459-0.36 0.867-0.627 1.222-0.266 0.348-0.591 0.655-0.974 0.918-0.383 0.264-0.814 0.5-1.294 0.707v0c0.403 0.222 0.753 0.555 1.047 0.999 0.295 0.437 0.509 1.001 0.641 1.691v0l0.523 2.394 1.504 0.06-0.121 3.555-5.297-0.21-0.545-4.36c-0.052-0.521-0.144-0.97-0.276-1.347-0.138-0.378-0.325-0.691-0.561-0.94-0.243-0.242-0.542-0.427-0.896-0.554-0.347-0.127-0.767-0.2-1.258-0.219v0l-1.553-0.062-0.157 3.973 1.672 0.066-0.13 3.296-7.558-0.299 0.131-3.296 1.882 0.074 0.461-11.639zM89.052 164.736l-2.39-0.095-0.175 4.411 2.39 0.095c0.458 0.018 0.871-0.005 1.239-0.07 0.369-0.072 0.689-0.192 0.962-0.361 0.266-0.176 0.474-0.397 0.625-0.664 0.15-0.267 0.233-0.589 0.248-0.967v0c0.028-0.704-0.203-1.261-0.692-1.673-0.489-0.412-1.225-0.637-2.207-0.676zM114.492 176.583v0c-0.794 0.22-1.586 0.323-2.375 0.308-0.79-0.015-1.554-0.134-2.292-0.357-0.742-0.215-1.446-0.53-2.113-0.945-0.671-0.407-1.28-0.9-1.827-1.479-0.553-0.577-1.039-1.225-1.459-1.942-0.413-0.72-0.736-1.499-0.969-2.338v0c-0.234-0.845-0.361-1.686-0.378-2.521-0.01-0.831 0.073-1.637 0.25-2.417 0.17-0.778 0.438-1.514 0.804-2.208 0.358-0.699 0.799-1.332 1.324-1.898 0.517-0.571 1.111-1.066 1.78-1.487 0.669-0.42 1.401-0.74 2.195-0.96v0c0.8-0.222 1.595-0.325 2.386-0.31 0.79 0.015 1.557 0.133 2.301 0.355 0.736 0.216 1.44 0.531 2.113 0.944 0.665 0.408 1.274 0.901 1.827 1.479 0.559 0.576 1.046 1.223 1.459 1.942 0.421 0.724 0.749 1.509 0.983 2.354v0c0.231 0.832 0.352 1.667 0.364 2.505 0.016 0.83-0.067 1.635-0.25 2.417-0.177 0.78-0.445 1.516-0.804 2.208-0.364 0.701-0.806 1.333-1.325 1.898-0.524 0.573-1.12 1.069-1.789 1.489-0.669 0.42-1.404 0.741-2.205 0.963zM113.48 172.935v0c0.672-0.186 1.25-0.502 1.734-0.947 0.482-0.451 0.852-0.981 1.11-1.59 0.265-0.611 0.418-1.278 0.459-1.999 0.035-0.72-0.051-1.451-0.257-2.193v0c-0.21-0.755-0.519-1.435-0.927-2.039-0.409-0.604-0.884-1.099-1.426-1.486-0.548-0.386-1.141-0.645-1.778-0.779-0.637-0.134-1.288-0.108-1.953 0.076v0c-0.666 0.185-1.237 0.498-1.715 0.941-0.477 0.443-0.848 0.969-1.112 1.581-0.265 0.611-0.417 1.281-0.457 2.008-0.046 0.73 0.036 1.472 0.246 2.228v0c0.206 0.743 0.516 1.412 0.929 2.007 0.407 0.597 0.881 1.09 1.423 1.477 0.542 0.387 1.132 0.651 1.771 0.791 0.637 0.134 1.288 0.108 1.953-0.076zM124.103 156.755l-1.786-2.797 6.585-4.204 1.786 2.797-1.621 1.035 6.268 9.819 3.351-2.139c0.09-0.057 0.16-0.138 0.212-0.242 0.052-0.104 0.082-0.218 0.09-0.341 0.017-0.121 0.015-0.242-0.007-0.362-0.022-0.12-0.061-0.225-0.118-0.315v0l-1.314-2.058 3.293-2.102 3.608 5.653-12.305 7.855-1.775-2.78 1.588-1.014-6.268-9.818zM147.452 136.533l-2.532-2.144 4.481-5.294 2.532 2.144-0.953 1.126 11.409 9.658-2.589 3.057-13.925-1.827 6.495 5.499 0.992-1.171 2.517 2.131-4.474 5.285-2.518-2.131 0.972-1.148-8.89-7.527-0.96 1.134-2.532-2.144 3.567-4.214 14.014 1.968-6.601-5.589zM162.197 112.808l-1.4 3.454c-0.758 0.173-1.332 0.377-1.722 0.613-0.381 0.233-0.706 0.52-0.974 0.863-0.262 0.345-0.479 0.73-0.651 1.156v0c-0.252 0.622-0.35 1.26-0.292 1.913 0.06 0.648 0.251 1.263 0.574 1.846 0.32 0.589 0.756 1.124 1.306 1.605 0.544 0.479 1.173 0.863 1.887 1.153v0c0.72 0.292 1.445 0.457 2.176 0.495 0.721 0.042 1.401-0.034 2.038-0.227 0.631-0.196 1.194-0.505 1.689-0.928 0.5-0.421 0.88-0.951 1.14-1.592v0c0.182-0.449 0.277-0.895 0.284-1.336 0.01-0.448-0.038-0.879-0.142-1.294-0.113-0.411-0.274-0.799-0.485-1.165-0.21-0.365-0.459-0.681-0.745-0.947v0l2.467-3.193c0.638 0.531 1.178 1.144 1.62 1.839 0.433 0.699 0.75 1.455 0.951 2.268 0.201 0.813 0.271 1.665 0.21 2.558-0.052 0.889-0.263 1.789-0.633 2.701v0c-0.31 0.763-0.711 1.454-1.205 2.07-0.494 0.617-1.054 1.15-1.681 1.598-0.623 0.457-1.302 0.823-2.037 1.099-0.744 0.279-1.509 0.46-2.295 0.542-0.795 0.086-1.608 0.076-2.439-0.032-0.822-0.111-1.64-0.332-2.452-0.661v0c-1.213-0.492-2.262-1.165-3.149-2.019-0.893-0.857-1.585-1.811-2.075-2.863-0.495-1.061-0.769-2.179-0.823-3.355-0.057-1.185 0.146-2.349 0.611-3.495v0c0.372-0.917 0.798-1.641 1.278-2.17 0.482-0.536 1.211-1.043 2.187-1.521v0l1.015-2.503z" fill="#50a060" data-fill-palette-color="primary"></path><path d="M5.057 67.513L1.991 66.41 4.593 59.181 7.659 60.285 7.018 62.066 17.781 65.942 19.104 62.266C19.138 62.173 19.144 62.069 19.121 61.955 19.099 61.841 19.056 61.734 18.993 61.633 18.924 61.531 18.848 61.44 18.763 61.36 18.675 61.272 18.584 61.211 18.49 61.177V61.177L16.231 60.363 17.527 56.763 23.724 58.994 18.867 72.486 15.82 71.389 16.451 69.636 5.688 65.76ZM14.722 45.522L12.107 43.579 16.391 37.811 19.006 39.754 18.026 41.074 23.994 45.507C24.538 45.911 25.049 46.191 25.528 46.349 25.998 46.507 26.434 46.566 26.836 46.526 27.243 46.48 27.615 46.347 27.952 46.126 28.29 45.905 28.592 45.616 28.857 45.259V45.259C29.139 44.88 29.344 44.503 29.474 44.128 29.608 43.747 29.641 43.363 29.574 42.974 29.502 42.581 29.317 42.183 29.021 41.78 28.724 41.378 28.282 40.959 27.695 40.523V40.523L21.728 36.09 20.587 37.626 17.971 35.683 22.261 29.908 24.877 31.851 24.027 32.995 29.627 37.154C30.64 37.907 31.433 38.723 32.004 39.602 32.575 40.482 32.945 41.377 33.112 42.288 33.276 43.204 33.244 44.111 33.015 45.009 32.796 45.905 32.394 46.748 31.807 47.537V47.537C31.229 48.316 30.547 48.939 29.761 49.406 28.976 49.873 28.13 50.16 27.224 50.265 26.309 50.371 25.364 50.285 24.387 50.007 23.401 49.73 22.423 49.231 21.452 48.51V48.51L15.685 44.226ZM46.782 16.978L43.821 19.124C43.096 18.87 42.512 18.744 42.069 18.744 41.628 18.736 41.208 18.807 40.808 18.957 40.404 19.102 40.022 19.305 39.662 19.566V19.566C39.124 19.956 38.712 20.44 38.424 21.017 38.139 21.585 37.979 22.197 37.946 22.853 37.907 23.513 37.991 24.182 38.196 24.862 38.4 25.551 38.724 26.202 39.169 26.815V26.815C39.617 27.434 40.132 27.947 40.714 28.354 41.3 28.766 41.908 29.055 42.538 29.222 43.168 29.39 43.797 29.426 44.426 29.331 45.064 29.238 45.657 28.992 46.206 28.595V28.595C46.588 28.318 46.901 27.997 47.144 27.631 47.383 27.27 47.565 26.888 47.691 26.484 47.812 26.085 47.877 25.677 47.887 25.26 47.9 24.848 47.863 24.457 47.774 24.086V24.086L51.476 22.707C51.733 23.481 51.864 24.272 51.868 25.082 51.872 25.891 51.745 26.689 51.486 27.475 51.229 28.252 50.846 28.997 50.337 29.711 49.825 30.419 49.179 31.055 48.399 31.62V31.62C47.737 32.1 47.043 32.467 46.318 32.723 45.587 32.982 44.841 33.136 44.082 33.186 43.328 33.232 42.572 33.181 41.816 33.032 41.056 32.877 40.324 32.632 39.621 32.296 38.915 31.955 38.244 31.522 37.61 30.998 36.979 30.478 36.412 29.872 35.909 29.178V29.178C35.153 28.134 34.628 27.026 34.335 25.851 34.042 24.677 33.963 23.521 34.097 22.381 34.24 21.244 34.595 20.17 35.16 19.162 35.731 18.149 36.508 17.286 37.492 16.573V16.573C38.278 16.004 39.007 15.623 39.68 15.431 40.358 15.234 41.228 15.19 42.291 15.298V15.298L44.437 13.742ZM56.261 10.292L55.091 6.912 68.575 2.244 70.576 8.025 66.932 9.287 66.101 6.886 61.751 8.392 62.908 11.735 66.279 10.568 67.4 13.807 64.029 14.974 65.388 18.9 69.739 17.395 68.696 14.381 72.34 13.12 74.442 19.193 60.958 23.861 59.899 20.801 61.678 20.185 58.041 9.676ZM80.479 3.631L80.353 0.375 89.832 0.007C90.755-0.029 91.587 0.078 92.328 0.329 93.062 0.573 93.687 0.917 94.203 1.363 94.712 1.802 95.111 2.321 95.4 2.922 95.69 3.522 95.847 4.154 95.873 4.818V4.818C95.896 5.422 95.851 5.956 95.736 6.419 95.627 6.882 95.454 7.294 95.215 7.656 94.984 8.024 94.691 8.351 94.336 8.637 93.988 8.923 93.586 9.185 93.13 9.422V9.422C93.536 9.612 93.904 9.91 94.232 10.317 94.554 10.73 94.807 11.268 94.993 11.932V11.932L95.681 14.239 97.164 14.181 97.32 17.666 92.122 17.868 91.24 13.644C91.154 13.142 91.031 12.708 90.87 12.342 90.71 11.983 90.503 11.691 90.248 11.469 89.993 11.246 89.688 11.085 89.332 10.986 88.976 10.893 88.559 10.856 88.081 10.875V10.875L86.557 10.934 86.709 14.837 88.352 14.773 88.478 18.01 81.05 18.298 80.924 15.062 82.786 14.99 82.341 3.559ZM88.615 3.315L86.265 3.406 86.433 7.738 88.783 7.646C89.234 7.629 89.638 7.573 89.993 7.48 90.348 7.379 90.649 7.238 90.894 7.056 91.146 6.866 91.336 6.636 91.466 6.365 91.594 6.088 91.652 5.763 91.637 5.391V5.391C91.61 4.701 91.34 4.173 90.828 3.807 90.315 3.442 89.577 3.278 88.615 3.315ZM111.285 21.271V21.271C110.498 21.052 109.779 20.737 109.127 20.328 108.469 19.918 107.884 19.431 107.372 18.867 106.866 18.306 106.436 17.686 106.08 17.008 105.726 16.323 105.462 15.598 105.289 14.832 105.116 14.067 105.036 13.276 105.05 12.459 105.064 11.642 105.186 10.821 105.415 9.996V9.996C105.645 9.17 105.966 8.401 106.379 7.688 106.789 6.982 107.266 6.346 107.81 5.78 108.354 5.214 108.954 4.73 109.611 4.327 110.268 3.923 110.957 3.615 111.679 3.403 112.408 3.185 113.161 3.07 113.936 3.059 114.705 3.046 115.484 3.148 116.271 3.368V3.368C117.051 3.585 117.771 3.899 118.429 4.31 119.087 4.721 119.672 5.208 120.184 5.771 120.698 6.328 121.132 6.949 121.486 7.633 121.84 8.318 122.103 9.043 122.276 9.809 122.456 10.576 122.539 11.368 122.525 12.185 122.503 13.006 122.377 13.83 122.147 14.655V14.655C121.919 15.474 121.602 16.241 121.196 16.956 120.786 17.662 120.306 18.297 119.755 18.861 119.212 19.427 118.611 19.911 117.954 20.314 117.299 20.711 116.607 21.018 115.877 21.236 115.148 21.453 114.395 21.568 113.62 21.579 112.844 21.591 112.066 21.488 111.285 21.271ZM112.282 17.69V17.69C112.941 17.874 113.585 17.901 114.214 17.773 114.845 17.638 115.426 17.383 115.958 17.007 116.492 16.625 116.955 16.14 117.346 15.552 117.745 14.96 118.047 14.299 118.25 13.57V13.57C118.455 12.834 118.539 12.109 118.504 11.396 118.461 10.681 118.311 10.021 118.051 9.418 117.791 8.815 117.426 8.296 116.954 7.861 116.49 7.421 115.932 7.111 115.279 6.929V6.929C114.626 6.747 113.984 6.724 113.354 6.858 112.732 6.989 112.153 7.245 111.619 7.627 111.085 8.009 110.615 8.496 110.21 9.086 109.804 9.676 109.499 10.34 109.294 11.076V11.076C109.09 11.805 109.01 12.527 109.052 13.243 109.096 13.951 109.248 14.607 109.507 15.211 109.769 15.808 110.131 16.326 110.595 16.765 111.067 17.2 111.629 17.508 112.282 17.69ZM133.807 14.122L135.565 11.378 142.034 15.523 140.277 18.266 138.682 17.245 132.512 26.878 135.801 28.985C135.885 29.038 135.985 29.067 136.101 29.07 136.217 29.074 136.331 29.056 136.443 29.017 136.558 28.973 136.664 28.918 136.76 28.854 136.866 28.787 136.946 28.712 137 28.628V28.628L138.295 26.606 141.517 28.67 137.964 34.216 125.89 26.481 127.637 23.755 129.206 24.76 135.377 15.127ZM160.914 37.715L163.406 35.615 167.798 40.827 165.306 42.927 164.362 41.807 153.139 51.266 150.609 48.264 154.668 35.082 148.275 40.47 149.245 41.62 146.768 43.707 142.382 38.503 144.859 36.416 145.816 37.551 154.563 30.179 153.625 29.067 156.117 26.967 159.604 31.104 155.405 44.352 161.896 38.881ZM174.303 67.718L172.936 64.326C173.358 63.683 173.622 63.147 173.728 62.718 173.843 62.292 173.876 61.867 173.827 61.443 173.784 61.016 173.679 60.596 173.513 60.183V60.183C173.264 59.567 172.895 59.05 172.404 58.632 171.922 58.217 171.367 57.914 170.738 57.723 170.108 57.526 169.438 57.445 168.728 57.48 168.01 57.512 167.3 57.669 166.598 57.952V57.952C165.889 58.237 165.267 58.613 164.732 59.08 164.19 59.549 163.762 60.068 163.448 60.639 163.133 61.21 162.946 61.812 162.886 62.445 162.822 63.086 162.917 63.721 163.17 64.35V64.35C163.346 64.787 163.582 65.169 163.878 65.494 164.171 65.812 164.498 66.082 164.859 66.302 165.217 66.515 165.597 66.677 166 66.787 166.396 66.9 166.785 66.958 167.166 66.962V66.962L167.608 70.888C166.796 70.95 165.996 70.885 165.21 70.694 164.424 70.502 163.68 70.185 162.98 69.744 162.288 69.307 161.657 68.755 161.088 68.089 160.525 67.421 160.064 66.64 159.704 65.746V65.746C159.398 64.988 159.21 64.226 159.137 63.46 159.063 62.688 159.093 61.928 159.228 61.179 159.366 60.436 159.598 59.715 159.926 59.018 160.26 58.317 160.675 57.667 161.17 57.066 161.672 56.463 162.254 55.917 162.917 55.428 163.573 54.941 164.299 54.538 165.093 54.218V54.218C166.289 53.736 167.492 53.495 168.702 53.495 169.912 53.494 171.054 53.697 172.127 54.102 173.196 54.517 174.152 55.12 174.994 55.913 175.838 56.711 176.488 57.674 176.942 58.802V58.802C177.304 59.701 177.497 60.501 177.521 61.2 177.548 61.906 177.38 62.761 177.019 63.766V63.766L178.009 66.225Z" fill="#50a060" data-fill-palette-color="primary"></path><path d="M2.826 92.654c0-3.853 3.124-6.977 6.978-6.977 3.853 0 6.977 3.124 6.977 6.977 0 3.853-3.124 6.977-6.977 6.978-3.853 0-6.977-3.124-6.978-6.978zM164.258 92.654c0-3.853 3.124-6.977 6.978-6.977 3.853 0 6.977 3.124 6.977 6.977 0 3.853-3.124 6.977-6.977 6.978-3.853 0-6.977-3.124-6.978-6.978z" fill="#50a060" data-fill-palette-color="primary"></path></svg></g></svg></g></svg></g><g></g></svg></g></svg></g></svg></g><defs></defs></svg><rect width="320" height="360" fill="none" stroke="none" visibility="hidden"></rect></g></svg></g></svg>