<svg xmlns="http://www.w3.org/2000/svg" version="1.1" xmlns:xlink="http://www.w3.org/1999/xlink" xmlns:svgjs="http://svgjs.dev/svgjs" width="1000" height="184" viewBox="0 0 1000 184"><g transform="matrix(1,0,0,1,-0.606030935941078,0.4833620672356602)"><svg viewBox="0 0 396 73" data-background-color="#2ecc40" preserveAspectRatio="xMidYMid meet" height="184" width="1000" xmlns="http://www.w3.org/2000/svg" xmlns:xlink="http://www.w3.org/1999/xlink"><g id="tight-bounds" transform="matrix(1,0,0,1,0.2399882506326776,-0.19176864624023438)"><svg viewBox="0 0 395.52 73.38353467321467" height="73.38353467321467" width="395.52"><rect width="395.52001953125" height="73.38353729248047" fill="[object Object]" mask="url(&quot;#b2b4be9c-fe9f-4472-91d4-68f60be23181&quot;)" data-fill-palette-color="accent"></rect><g><svg viewBox="0 0 540.0451919052086 100.1982834376991" height="73.38353467321467" width="395.52"><g><rect width="5.749100144819363" height="97.15318365160402" x="123.72609138128102" y="1.5225498930475396" fill="#ffdc00" opacity="1" stroke-width="0" stroke="transparent" fill-opacity="1" class="rect-o-0" data-fill-palette-color="primary" rx="1%" id="o-0" data-palette-color="#ffdc00"></rect></g><g transform="matrix(1,0,0,1,144.52519190520866,1.7642244792455557)"><svg viewBox="0 0 395.52 96.66983447920799" height="96.66983447920799" width="395.52"><g id="textblocktransform"><svg viewBox="0 0 395.52 96.66983447920799" height="96.66983447920799" width="395.52" id="textblock"><g><svg viewBox="0 0 395.52 63.75065817409766" height="63.75065817409766" width="395.52"><g transform="matrix(1,0,0,1,0,0)"><svg width="395.52" viewBox="3.700000047683716 -41.5 285.3199768066406 45.54999923706055" height="63.75065817409766" data-palette-color="#ffdc00"><g class="undefined-text-0" data-fill-palette-color="primary" id="text-0"><path d="M23.65-2.85L23.65-2.85Q24.9-0.7 24.9 1.3L24.9 1.3Q24.9 1.75 24.83 2.13 24.75 2.5 24.65 2.9L24.65 2.9Q23.8 2.8 22.88 2.75 21.95 2.7 20.95 2.7L20.95 2.7Q19.75 2.7 18.53 2.78 17.3 2.85 15.8 3 14.3 3.15 12.45 3.4 10.6 3.65 8.15 4.05L8.15 4.05Q7 3.65 5.85 2.48 4.7 1.3 3.7-0.35L3.7-0.35Q4.2-1.45 4.95-3.08 5.7-4.7 6.7-7.03 7.7-9.35 8.93-12.48 10.15-15.6 11.55-19.7L11.55-19.7Q12.45-22.4 13.1-24.45 13.75-26.5 14.28-28.43 14.8-30.35 15.3-32.45 15.8-34.55 16.4-37.3L16.4-37.3Q18.4-36.9 19.88-35.83 21.35-34.75 22.7-32.75L22.7-32.75Q22.3-32.1 21.65-30.65 21-29.2 20.13-27.13 19.25-25.05 18.2-22.43 17.15-19.8 16-16.8L16-16.8Q14.9-13.85 13.85-11.25 12.8-8.65 11.98-6.55 11.15-4.45 10.65-2.95 10.15-1.45 10.15-0.7L10.15-0.7Q10.95-0.75 11.6-0.8 12.25-0.85 12.95-0.98 13.65-1.1 14.48-1.28 15.3-1.45 16.45-1.75L16.45-1.75Q17.45-2 18.3-2.18 19.15-2.35 19.98-2.48 20.8-2.6 21.68-2.68 22.55-2.75 23.65-2.85ZM43.45-1.1L43.45-1.1Q42.5-1.9 42.17-3.1 41.85-4.3 41.85-5.15L41.85-5.15Q41.85-6.2 42.1-6.95L42.1-6.95Q41.9-6.95 41.2-6.15 40.5-5.35 39.67-4.25 38.85-3.15 38.05-2.1 37.25-1.05 36.85-0.55L36.85-0.55Q36.2 0.15 35.62 0.55 35.05 0.95 34.7 1L34.7 1Q33.9 0.95 33.02 0.68 32.15 0.4 31.37-0.1 30.6-0.6 30.02-1.3 29.45-2 29.25-2.9L29.25-2.9Q29.25-4.3 29.32-5.2 29.4-6.1 29.65-7.15L29.65-7.15Q30.1-9.05 30.97-11.45 31.85-13.85 33-16.18 34.15-18.5 35.57-20.53 37-22.55 38.6-23.7L38.6-23.7Q39.05-23.7 39.65-23.63 40.25-23.55 40.87-23.35 41.5-23.15 42.07-22.88 42.65-22.6 43.05-22.15L43.05-22.15Q42.6-21.65 40.77-18.8 38.95-15.95 36.7-10.6L36.7-10.6Q36.45-10.05 36.1-9 35.75-7.95 35.4-6.8 35.05-5.65 34.82-4.55 34.6-3.45 34.6-2.8L34.6-2.8Q34.6-2.4 34.72-2.2 34.85-2 34.95-1.9L34.95-1.9Q35.7-2.2 36.85-3.55 38-4.9 40.05-7.7L40.05-7.7Q40.55-8.4 41.22-9.3 41.9-10.2 42.6-11.23 43.3-12.25 43.92-13.35 44.55-14.45 44.95-15.55L44.95-15.55Q45.15-16.15 45.47-16.98 45.8-17.8 46.27-18.7 46.75-19.6 47.37-20.53 48-21.45 48.85-22.25L48.85-22.25Q49.5-22.25 50.25-22.1 51-21.95 51.67-21.73 52.35-21.5 52.85-21.23 53.35-20.95 53.6-20.65L53.6-20.65Q52.7-18.45 51.6-16.3 50.5-14.15 49.55-12.08 48.6-10 47.95-7.95 47.3-5.9 47.3-3.95L47.3-3.95Q47.3-2.9 47.47-2.13 47.65-1.35 47.85-0.83 48.05-0.3 48.22 0.05 48.4 0.4 48.4 0.65L48.4 0.65Q48.4 0.7 48.3 0.8L48.3 0.8Q48.25 0.85 48.2 0.85L48.2 0.85Q47.85 0.85 47.3 0.7 46.75 0.55 46.07 0.28 45.4 0 44.72-0.35 44.05-0.7 43.45-1.1ZM54.85-8.8L54.85-8.8Q54.85-11.65 56.02-14.33 57.2-17 59.12-19.07 61.05-21.15 63.52-22.43 66-23.7 68.65-23.7L68.65-23.7Q71.25-23.7 72.65-22.4 74.05-21.1 74.05-18.7L74.05-18.7Q74.05-17.55 73.72-16.48 73.4-15.4 72.87-14.55 72.35-13.7 71.65-13.18 70.95-12.65 70.25-12.65L70.25-12.65Q69.65-12.65 69.02-13.03 68.4-13.4 68-14L68-14Q71.35-17.05 71.35-19.55L71.35-19.55Q71.35-21 70.2-21L70.2-21Q69.2-21 67.7-20.05 66.2-19.1 64.8-17.55L64.8-17.55Q62.65-15.15 61.52-12.23 60.4-9.3 60.4-6.1L60.4-6.1Q60.4-2.05 62.2-1.25L62.2-1.25Q62.95-1.35 63.95-1.7 64.95-2.05 66.1-2.63 67.25-3.2 68.47-3.95 69.7-4.7 70.85-5.55L70.85-5.55Q71.05-5.4 71.2-5.1 71.35-4.8 71.35-4.55L71.35-4.55Q70.5-3.5 69.4-2.5 68.3-1.5 67.1-0.68 65.9 0.15 64.77 0.73 63.65 1.3 62.8 1.45L62.8 1.45Q61.15 1.3 59.7 0.43 58.25-0.45 57.17-1.85 56.1-3.25 55.47-5.05 54.85-6.85 54.85-8.8ZM93.44-20.7L93.44-20.7Q93.24-17.6 92.34-15.38 91.44-13.15 89.77-11.48 88.09-9.8 85.69-8.45 83.29-7.1 80.09-5.85L80.09-5.85Q80.09-5.55 80.07-5.23 80.04-4.9 80.04-4.55L80.04-4.55Q80.04-3.9 80.14-3.2 80.24-2.5 80.49-1.9 80.74-1.3 81.19-0.93 81.64-0.55 82.34-0.55L82.34-0.55Q83.69-0.55 84.99-1.15 86.29-1.75 87.47-2.63 88.64-3.5 89.67-4.53 90.69-5.55 91.49-6.4L91.49-6.4Q91.99-5.95 92.34-5.55L92.34-5.55Q90.09-2.55 87.42-0.58 84.74 1.4 82.34 1.95L82.34 1.95Q78.89 1.55 76.97-0.58 75.04-2.7 75.04-5.7L75.04-5.7Q75.04-7.75 75.62-9.88 76.19-12 77.22-13.98 78.24-15.95 79.62-17.7 80.99-19.45 82.57-20.75 84.14-22.05 85.82-22.8 87.49-23.55 89.14-23.55L89.14-23.55Q91.44-23.25 93.44-20.7ZM89.99-19.05L89.99-19.05Q88.64-18.85 87.19-17.95 85.74-17.05 84.47-15.55 83.19-14.05 82.14-12.05 81.09-10.05 80.49-7.75L80.49-7.75Q84.49-9.75 87.14-12.68 89.79-15.6 89.99-19.05ZM94.54-1L94.54-1Q94.79-2.45 95.42-4.83 96.04-7.2 96.89-9.88 97.74-12.55 98.69-15.25 99.64-17.95 100.54-20.1L100.54-20.1Q101.19-21.65 101.69-22.53 102.19-23.4 102.79-24L102.79-24Q103.49-23.9 104.24-23.65 104.99-23.4 105.69-23.05 106.39-22.7 106.94-22.33 107.49-21.95 107.79-21.6L107.79-21.6Q106.44-20 105.42-17.95 104.39-15.9 103.34-12.7L103.34-12.7Q106.04-15.1 108.12-17.3 110.19-19.5 111.99-22.2L111.99-22.2Q112.29-22.45 113.04-22.45L113.04-22.45Q113.74-22.45 114.39-22.23 115.04-22 115.29-21.6L115.29-21.6Q114.39-19.2 114.39-16.85L114.39-16.85Q114.39-14.65 115.04-13.55L115.04-13.55Q114.99-13.25 114.37-12.4 113.74-11.55 112.99-10.8L112.99-10.8Q111.64-11.5 110.59-12.73 109.54-13.95 109.04-15.4L109.04-15.4Q106.69-13.75 105.04-12.18 103.39-10.6 102.22-8.68 101.04-6.75 100.22-4.25 99.39-1.75 98.64 1.7L98.64 1.7Q98.19 1.65 97.57 1.38 96.94 1.1 96.32 0.7 95.69 0.3 95.19-0.15 94.69-0.6 94.54-1ZM121.79 1.75L121.79 1.75Q118.94 1.45 117.24-0.75 115.54-2.95 115.54-6.35L115.54-6.35Q115.54-8.35 116.14-10.5 116.74-12.65 117.84-14.68 118.94-16.7 120.44-18.5 121.94-20.3 123.69-21.6L123.69-21.6Q126.44-23.65 128.84-23.65L128.84-23.65Q130.44-22.8 131.99-20.1L131.99-20.1Q132.24-20.1 132.44-20.13 132.64-20.15 132.89-20.15L132.89-20.15Q135.54-20.15 135.54-15.45L135.54-15.45Q135.54-12.3 134.51-9.47 133.49-6.65 131.66-4.35 129.84-2.05 127.31-0.48 124.79 1.1 121.79 1.75ZM124.34-14L124.34-14Q123.49-12.85 122.74-11.5 121.99-10.15 121.44-8.78 120.89-7.4 120.59-6.13 120.29-4.85 120.29-3.85L120.29-3.85Q120.29-2.65 120.69-1.55 121.09-0.45 121.59-0.3L121.59-0.3Q123.84-0.8 125.71-2.18 127.59-3.55 128.96-5.6 130.34-7.65 131.11-10.25 131.89-12.85 131.89-15.8L131.89-15.8Q131.89-17.1 131.74-17.85 131.59-18.6 131.24-19.15L131.24-19.15Q129.04-18.5 127.31-17.05 125.59-15.6 124.34-14ZM137.89-3.2L137.89-3.2Q137.89-5.4 138.94-9.38 139.99-13.35 141.89-18.65L141.89-18.65Q144.99-27.1 147.71-32.73 150.44-38.35 153.04-41.5L153.04-41.5Q153.64-41.4 154.51-41 155.39-40.6 156.24-40.13 157.09-39.65 157.76-39.15 158.44-38.65 158.64-38.35L158.64-38.35Q154.74-33.75 151.79-28.45 148.84-23.15 146.39-16.3L146.39-16.3Q144.29-10.4 143.19-5.68 142.09-0.95 142.09 2.2L142.09 2.2Q142.09 3.05 142.09 3.25 142.09 3.45 142.14 3.65L142.14 3.65Q141.44 3.55 140.94 3.3 140.44 3.05 140.29 2.7L140.29 2.7Q140.19 2.45 139.74 1.98 139.29 1.5 138.94 1.25L138.94 1.25Q138.49 0.95 138.19-0.33 137.89-1.6 137.89-3.2ZM157.83-24.25L157.83-24.25Q159.13-23.85 160.28-22.48 161.43-21.1 161.98-19.45L161.98-19.45Q161.43-18.1 160.28-16.2 159.13-14.3 157.98-12.33 156.83-10.35 155.91-8.58 154.98-6.8 154.83-5.65L154.83-5.65Q155.63-6.5 156.61-7.63 157.58-8.75 158.51-9.88 159.43-11 160.23-11.93 161.03-12.85 161.48-13.3L161.48-13.3Q162.43-14.3 163.73-15.63 165.03-16.95 166.46-18.13 167.88-19.3 169.33-20.13 170.78-20.95 171.98-20.95L171.98-20.95Q173.28-20.95 174.16-20.08 175.03-19.2 175.53-18.25L175.53-18.25Q175.53-18.15 175.16-17.98 174.78-17.8 174.08-17L174.08-17Q173.38-16.1 172.51-14.53 171.63-12.95 170.81-11.13 169.98-9.3 169.43-7.4 168.88-5.5 168.88-3.95L168.88-3.95Q168.88-2.7 169.21-2.35 169.53-2 170.13-2L170.13-2Q170.68-2 171.28-2.25 171.88-2.5 172.23-2.5L172.23-2.5Q172.43-2.4 172.56-2.08 172.68-1.75 172.68-1.5L172.68-1.5Q172.28-1.15 171.73-0.8 171.18-0.45 170.58-0.15 169.98 0.15 169.41 0.35 168.83 0.55 168.38 0.55L168.38 0.55Q166.93 0.55 166.01 0.13 165.08-0.3 164.56-1 164.03-1.7 163.83-2.68 163.63-3.65 163.63-4.75L163.63-4.75Q163.63-5.35 163.73-6.1 163.83-6.85 164.13-7.88 164.43-8.9 164.98-10.33 165.53-11.75 166.38-13.75L166.38-13.75Q166.28-13.75 165.03-13.05 163.78-12.35 162.33-10.9L162.33-10.9Q159.98-8.65 158.11-6.45 156.23-4.25 154.28-1.55L154.28-1.55Q153.18 0 152.36 1.07 151.53 2.15 150.93 2.5L150.93 2.5Q149.88 1.9 149.38 0.83 148.88-0.25 148.63-1.4L148.63-1.4Q148.63-2.35 148.91-3.8 149.18-5.25 149.66-7.03 150.13-8.8 150.83-10.75 151.53-12.7 152.38-14.65L152.38-14.65Q154.28-19.05 155.86-21.55 157.43-24.05 157.83-24.25ZM177.03-8.8L177.03-8.8Q177.03-11.65 178.21-14.33 179.38-17 181.31-19.07 183.23-21.15 185.71-22.43 188.18-23.7 190.83-23.7L190.83-23.7Q193.43-23.7 194.83-22.4 196.23-21.1 196.23-18.7L196.23-18.7Q196.23-17.55 195.91-16.48 195.58-15.4 195.06-14.55 194.53-13.7 193.83-13.18 193.13-12.65 192.43-12.65L192.43-12.65Q191.83-12.65 191.21-13.03 190.58-13.4 190.18-14L190.18-14Q193.53-17.05 193.53-19.55L193.53-19.55Q193.53-21 192.38-21L192.38-21Q191.38-21 189.88-20.05 188.38-19.1 186.98-17.55L186.98-17.55Q184.83-15.15 183.71-12.23 182.58-9.3 182.58-6.1L182.58-6.1Q182.58-2.05 184.38-1.25L184.38-1.25Q185.13-1.35 186.13-1.7 187.13-2.05 188.28-2.63 189.43-3.2 190.66-3.95 191.88-4.7 193.03-5.55L193.03-5.55Q193.23-5.4 193.38-5.1 193.53-4.8 193.53-4.55L193.53-4.55Q192.68-3.5 191.58-2.5 190.48-1.5 189.28-0.68 188.08 0.15 186.96 0.73 185.83 1.3 184.98 1.45L184.98 1.45Q183.33 1.3 181.88 0.43 180.43-0.45 179.36-1.85 178.28-3.25 177.66-5.05 177.03-6.85 177.03-8.8ZM199.13 1.9L199.13 1.9Q198.33 1.8 197.45 1.23 196.58 0.65 196.33-0.05L196.33-0.05Q196.33-0.65 196.5-1.6 196.68-2.55 196.93-3.53 197.18-4.5 197.43-5.38 197.68-6.25 197.78-6.7L197.78-6.7Q198.38-6.7 199.3-6.4 200.23-6.1 201.2-5.58 202.18-5.05 203.05-4.38 203.93-3.7 204.38-3L204.38-3Q203.93-2 203.23-1.1 202.53-0.2 201.75 0.48 200.98 1.15 200.28 1.53 199.58 1.9 199.13 1.9ZM210.08-8.8L210.08-8.8Q210.08-11.65 211.25-14.33 212.43-17 214.35-19.07 216.28-21.15 218.75-22.43 221.23-23.7 223.88-23.7L223.88-23.7Q226.48-23.7 227.88-22.4 229.28-21.1 229.28-18.7L229.28-18.7Q229.28-17.55 228.95-16.48 228.63-15.4 228.1-14.55 227.58-13.7 226.88-13.18 226.18-12.65 225.48-12.65L225.48-12.65Q224.88-12.65 224.25-13.03 223.63-13.4 223.23-14L223.23-14Q226.58-17.05 226.58-19.55L226.58-19.55Q226.58-21 225.43-21L225.43-21Q224.43-21 222.93-20.05 221.43-19.1 220.03-17.55L220.03-17.55Q217.88-15.15 216.75-12.23 215.63-9.3 215.63-6.1L215.63-6.1Q215.63-2.05 217.43-1.25L217.43-1.25Q218.18-1.35 219.18-1.7 220.18-2.05 221.33-2.63 222.48-3.2 223.7-3.95 224.93-4.7 226.08-5.55L226.08-5.55Q226.28-5.4 226.43-5.1 226.58-4.8 226.58-4.55L226.58-4.55Q225.73-3.5 224.63-2.5 223.53-1.5 222.33-0.68 221.13 0.15 220 0.73 218.88 1.3 218.03 1.45L218.03 1.45Q216.38 1.3 214.93 0.43 213.48-0.45 212.4-1.85 211.33-3.25 210.7-5.05 210.08-6.85 210.08-8.8ZM236.67 1.75L236.67 1.75Q233.82 1.45 232.12-0.75 230.42-2.95 230.42-6.35L230.42-6.35Q230.42-8.35 231.02-10.5 231.62-12.65 232.72-14.68 233.82-16.7 235.32-18.5 236.82-20.3 238.57-21.6L238.57-21.6Q241.32-23.65 243.72-23.65L243.72-23.65Q245.32-22.8 246.87-20.1L246.87-20.1Q247.12-20.1 247.32-20.13 247.52-20.15 247.77-20.15L247.77-20.15Q250.42-20.15 250.42-15.45L250.42-15.45Q250.42-12.3 249.4-9.47 248.37-6.65 246.55-4.35 244.72-2.05 242.2-0.48 239.67 1.1 236.67 1.75ZM239.22-14L239.22-14Q238.37-12.85 237.62-11.5 236.87-10.15 236.32-8.78 235.77-7.4 235.47-6.13 235.17-4.85 235.17-3.85L235.17-3.85Q235.17-2.65 235.57-1.55 235.97-0.45 236.47-0.3L236.47-0.3Q238.72-0.8 240.6-2.18 242.47-3.55 243.85-5.6 245.22-7.65 246-10.25 246.77-12.85 246.77-15.8L246.77-15.8Q246.77-17.1 246.62-17.85 246.47-18.6 246.12-19.15L246.12-19.15Q243.92-18.5 242.2-17.05 240.47-15.6 239.22-14ZM281.72-15.35L281.72-15.35Q280.92-15.3 279.77-14.33 278.62-13.35 277.3-11.83 275.97-10.3 274.55-8.45 273.12-6.6 271.8-4.78 270.47-2.95 269.32-1.35 268.17 0.25 267.37 1.2L267.37 1.2Q266.27 0.75 265.47-0.13 264.67-1 264.32-2.3L264.32-2.3Q264.57-3.85 265.02-5.53 265.47-7.2 266.2-9 266.92-10.8 268-12.78 269.07-14.75 270.62-16.95L270.62-16.95Q269.87-16.9 268.57-15.88 267.27-14.85 265.77-13.23 264.27-11.6 262.67-9.58 261.07-7.55 259.67-5.6L259.67-5.6Q257.82-3 256.6-1.05 255.37 0.9 254.82 1.25L254.82 1.25Q253.52 0.3 253.02-0.8 252.52-1.9 252.27-3.25L252.27-3.25Q252.32-4.45 252.65-6.25 252.97-8.05 253.57-9.95L253.57-9.95Q254.72-13.6 256.55-17.2 258.37-20.8 260.07-23.8L260.07-23.8Q261.47-23.5 262.6-22.85 263.72-22.2 264.97-20.95L264.97-20.95Q264.47-19.4 263.42-17.68 262.37-15.95 261.22-14.05 260.07-12.15 259.12-10.15 258.17-8.15 257.87-6.1L257.87-6.1Q259.27-8.1 261.2-10.7 263.12-13.3 265.15-15.6 267.17-17.9 269.17-19.5 271.17-21.1 272.77-21.1L272.77-21.1Q273.37-21.1 274.07-20.9 274.77-20.7 275.37-20.4 275.97-20.1 276.37-19.83 276.77-19.55 276.82-19.4L276.82-19.4Q276.57-18.4 275.65-16.68 274.72-14.95 273.67-13.05 272.62-11.15 271.72-9.38 270.82-7.6 270.67-6.55L270.67-6.55Q273.12-9.9 275.27-12.63 277.42-15.35 279.32-17.3 281.22-19.25 282.85-20.3 284.47-21.35 285.92-21.35L285.92-21.35Q286.92-21.35 287.8-20.83 288.67-20.3 289.02-19.3L289.02-19.3Q288.57-17.8 287.55-15.7 286.52-13.6 285.47-11.28 284.42-8.95 283.6-6.7 282.77-4.45 282.77-2.65L282.77-2.65Q282.77-1.6 283.07-1.28 283.37-0.95 283.92-0.95L283.92-0.95Q284.52-0.95 285.05-1.18 285.57-1.4 285.82-1.4L285.82-1.4Q286.12-1.2 286.17-0.9 286.22-0.6 286.22-0.35L286.22-0.35Q285.22 0.45 284.17 0.98 283.12 1.5 281.82 1.5L281.82 1.5Q280.62 1.5 279.85 1.1 279.07 0.7 278.57 0 278.07-0.7 277.87-1.6 277.67-2.5 277.67-3.55L277.67-3.55Q277.67-5.25 278.12-6.93 278.57-8.6 279.2-10.13 279.82-11.65 280.52-12.98 281.22-14.3 281.72-15.35Z" fill="#ffdc00" data-fill-palette-color="primary"></path></g></svg></g></svg></g><g transform="matrix(1,0,0,1,0,78.80065855320593)"><svg viewBox="0 0 232.20979200000002 17.869175926002058" height="17.869175926002058" width="232.20979200000002"><g transform="matrix(1,0,0,1,0,0)"><svg width="232.20979200000002" viewBox="3.700000047683716 -41.54999923706055 778.3099975585938 59.900001525878906" height="17.869175926002058" data-palette-color="#ffffff"><path d="M23.65-2.85L23.65-2.85Q24.9-0.7 24.9 1.3L24.9 1.3Q24.9 1.75 24.83 2.13 24.75 2.5 24.65 2.9L24.65 2.9Q23.8 2.8 22.88 2.75 21.95 2.7 20.95 2.7L20.95 2.7Q19.75 2.7 18.53 2.78 17.3 2.85 15.8 3 14.3 3.15 12.45 3.4 10.6 3.65 8.15 4.05L8.15 4.05Q7 3.65 5.85 2.48 4.7 1.3 3.7-0.35L3.7-0.35Q4.2-1.45 4.95-3.08 5.7-4.7 6.7-7.03 7.7-9.35 8.93-12.48 10.15-15.6 11.55-19.7L11.55-19.7Q12.45-22.4 13.1-24.45 13.75-26.5 14.28-28.43 14.8-30.35 15.3-32.45 15.8-34.55 16.4-37.3L16.4-37.3Q18.4-36.9 19.88-35.83 21.35-34.75 22.7-32.75L22.7-32.75Q22.3-32.1 21.65-30.65 21-29.2 20.13-27.13 19.25-25.05 18.2-22.43 17.15-19.8 16-16.8L16-16.8Q14.9-13.85 13.85-11.25 12.8-8.65 11.98-6.55 11.15-4.45 10.65-2.95 10.15-1.45 10.15-0.7L10.15-0.7Q10.95-0.75 11.6-0.8 12.25-0.85 12.95-0.98 13.65-1.1 14.48-1.28 15.3-1.45 16.45-1.75L16.45-1.75Q17.45-2 18.3-2.18 19.15-2.35 19.98-2.48 20.8-2.6 21.68-2.68 22.55-2.75 23.65-2.85ZM45.5-20.2L45.5-20.2Q46-20.2 46.67-20.03 47.35-19.85 47.9-19.58 48.45-19.3 48.82-19 49.2-18.7 49.2-18.45L49.2-18.45Q48.2-16.35 47.35-14.23 46.5-12.1 45.9-10.15 45.3-8.2 44.97-6.5 44.65-4.8 44.65-3.55L44.65-3.55Q44.65-2.15 44.95-1.23 45.25-0.3 45.95 0.1L45.95 0.1Q45.35 0.5 44.4 0.75 43.45 1 42.7 1L42.7 1Q40 1 40-2.7L40-2.7Q40-5.55 41.9-10.5L41.9-10.5Q40.9-8.2 39.6-6.18 38.3-4.15 36.95-2.6 35.6-1.05 34.22-0.08 32.85 0.9 31.7 1.1L31.7 1.1Q29.85 1 28.7-0.68 27.55-2.35 27.55-4.95L27.55-4.95Q27.55-7.75 28.75-10.85 29.95-13.95 31.82-16.6 33.7-19.25 35.9-21.03 38.1-22.8 40.15-22.9L40.15-22.9Q40.65-22.75 41.27-22.3 41.9-21.85 42.47-21.25 43.05-20.65 43.45-20.03 43.85-19.4 43.9-18.95L43.9-18.95Q41.9-18.65 39.77-17 37.65-15.35 35.92-13.03 34.2-10.7 33.1-8.05 32-5.4 32-3.1L32-3.1Q32-2.15 32.7-1.9L32.7-1.9Q34.15-2.2 36.05-4.38 37.95-6.55 40.65-11.1L40.65-11.1Q41.15-12 41.77-13.1 42.4-14.2 43.05-15.4 43.7-16.6 44.32-17.82 44.95-19.05 45.5-20.2ZM59.84-24.25L59.84-24.25Q61.14-23.85 62.29-22.48 63.44-21.1 63.99-19.45L63.99-19.45Q63.44-18.1 62.29-16.2 61.14-14.3 59.99-12.33 58.84-10.35 57.92-8.58 56.99-6.8 56.84-5.65L56.84-5.65Q57.64-6.5 58.62-7.63 59.59-8.75 60.52-9.88 61.44-11 62.24-11.93 63.05-12.85 63.49-13.3L63.49-13.3Q64.44-14.3 65.75-15.63 67.05-16.95 68.47-18.13 69.89-19.3 71.34-20.13 72.8-20.95 74-20.95L74-20.95Q75.3-20.95 76.17-20.08 77.05-19.2 77.55-18.25L77.55-18.25Q77.55-18.15 77.17-17.98 76.8-17.8 76.09-17L76.09-17Q75.39-16.1 74.52-14.53 73.64-12.95 72.82-11.13 72-9.3 71.44-7.4 70.89-5.5 70.89-3.95L70.89-3.95Q70.89-2.7 71.22-2.35 71.55-2 72.14-2L72.14-2Q72.69-2 73.3-2.25 73.89-2.5 74.25-2.5L74.25-2.5Q74.44-2.4 74.57-2.08 74.69-1.75 74.69-1.5L74.69-1.5Q74.3-1.15 73.75-0.8 73.19-0.45 72.59-0.15 72 0.15 71.42 0.35 70.84 0.55 70.39 0.55L70.39 0.55Q68.94 0.55 68.02 0.13 67.09-0.3 66.57-1 66.05-1.7 65.84-2.68 65.64-3.65 65.64-4.75L65.64-4.75Q65.64-5.35 65.75-6.1 65.84-6.85 66.14-7.88 66.44-8.9 67-10.33 67.55-11.75 68.39-13.75L68.39-13.75Q68.3-13.75 67.05-13.05 65.8-12.35 64.34-10.9L64.34-10.9Q61.99-8.65 60.12-6.45 58.24-4.25 56.29-1.55L56.29-1.55Q55.19 0 54.37 1.07 53.54 2.15 52.94 2.5L52.94 2.5Q51.89 1.9 51.39 0.83 50.89-0.25 50.64-1.4L50.64-1.4Q50.64-2.35 50.92-3.8 51.19-5.25 51.67-7.03 52.14-8.8 52.84-10.75 53.54-12.7 54.39-14.65L54.39-14.65Q56.29-19.05 57.87-21.55 59.44-24.05 59.84-24.25ZM89.64-23.35L89.64-23.35Q90.64-23.35 91.94-22.75 93.24-22.15 94.24-21.2L94.24-21.2Q93.99-23.2 93.62-24.98 93.24-26.75 92.52-28.65 91.79-30.55 90.59-32.8 89.39-35.05 87.59-37.95L87.59-37.95Q87.74-38.4 88.27-39 88.79-39.6 89.47-40.13 90.14-40.65 90.87-41.05 91.59-41.45 92.24-41.55L92.24-41.55Q93.64-40 94.89-37.68 96.14-35.35 97.09-32.68 98.04-30 98.57-27.15 99.09-24.3 99.09-21.7L99.09-21.7Q99.09-19.1 98.52-16.35 97.94-13.6 96.92-10.98 95.89-8.35 94.54-6 93.19-3.65 91.62-1.8 90.04 0.05 88.34 1.23 86.64 2.4 84.94 2.7L84.94 2.7Q81.49 2.3 79.67 0.48 77.84-1.35 77.84-4.55L77.84-4.55Q77.84-6.25 78.37-8.25 78.89-10.25 79.77-12.23 80.64-14.2 81.82-16.07 82.99-17.95 84.32-19.45 85.64-20.95 86.99-22 88.34-23.05 89.64-23.35ZM84.54 0.7L84.54 0.7Q86.29 0.1 88.04-1.95 89.79-4 91.19-6.78 92.59-9.55 93.47-12.73 94.34-15.9 94.34-18.85L94.34-18.85Q94.34-19.7 94.34-19.9 94.34-20.1 94.29-20.3L94.29-20.3Q93.09-19.8 91.74-18.6 90.39-17.4 89.04-15.83 87.69-14.25 86.49-12.4 85.29-10.55 84.34-8.7 83.39-6.85 82.84-5.15 82.29-3.45 82.29-2.15L82.29-2.15Q82.29 0.35 84.54 0.7ZM117.64-19.9L117.64-19.9Q117.59-18.95 117.32-17.93 117.04-16.9 116.64-16.07 116.24-15.25 115.79-14.7 115.34-14.15 114.94-14.15L114.94-14.15Q114.39-14.2 114.29-14.9L114.29-14.9Q114.29-15.05 114.42-15.38 114.54-15.7 114.69-16.1 114.84-16.5 114.97-16.9 115.09-17.3 115.09-17.6L115.09-17.6Q115.09-18.3 114.77-18.78 114.44-19.25 113.89-19.25L113.89-19.25Q111.89-19.25 110.84-16.75 109.79-14.25 109.79-9.4L109.79-9.4Q109.79-8.9 109.84-8.8L109.84-8.8Q110.89-8.85 111.72-8.88 112.54-8.9 113.34-8.9L113.34-8.9Q113.39-8.8 113.39-8.5L113.39-8.5Q113.39-8.05 113.19-7.85L113.19-7.85Q112.04-7.6 111.37-7.43 110.69-7.25 110.34-7.1 109.99-6.95 109.92-6.78 109.84-6.6 109.84-6.3L109.84-6.3Q109.84-5.9 109.87-5.5 109.89-5.1 109.89-4.5L109.89-4.5Q109.89-0.3 107.62 2.25 105.34 4.8 101.29 5.2L101.29 5.2Q100.59 5.15 99.84 4.8 99.09 4.45 98.42 3.9 97.74 3.35 97.24 2.68 96.74 2 96.54 1.3L96.54 1.3Q96.54-0.6 97.34-2.33 98.14-4.05 99.52-5.38 100.89-6.7 102.77-7.53 104.64-8.35 106.84-8.5L106.84-8.5Q106.84-9.75 106.59-10.95 106.34-12.15 106.07-13.28 105.79-14.4 105.54-15.48 105.29-16.55 105.29-17.6L105.29-17.6Q105.29-18.95 105.84-20.28 106.39-21.6 107.29-22.73 108.19-23.85 109.39-24.65 110.59-25.45 111.89-25.75L111.89-25.75Q112.44-25.6 113.37-24.88 114.29-24.15 115.19-23.25 116.09-22.35 116.79-21.43 117.49-20.5 117.64-19.9ZM101.14 2.9L101.14 2.9Q102.34 2.4 103.42 1.45 104.49 0.5 105.29-0.7 106.09-1.9 106.57-3.25 107.04-4.6 107.04-5.9L107.04-5.9Q106.04-5.75 104.84-4.98 103.64-4.2 102.59-3.13 101.54-2.05 100.84-0.9 100.14 0.25 100.14 1.1L100.14 1.1Q100.14 2.2 101.14 2.9ZM117.99-8.8L117.99-8.8Q117.99-11.65 119.16-14.33 120.34-17 122.26-19.07 124.19-21.15 126.66-22.43 129.14-23.7 131.79-23.7L131.79-23.7Q134.39-23.7 135.79-22.4 137.19-21.1 137.19-18.7L137.19-18.7Q137.19-17.55 136.86-16.48 136.54-15.4 136.01-14.55 135.49-13.7 134.79-13.18 134.09-12.65 133.39-12.65L133.39-12.65Q132.79-12.65 132.16-13.03 131.54-13.4 131.14-14L131.14-14Q134.49-17.05 134.49-19.55L134.49-19.55Q134.49-21 133.34-21L133.34-21Q132.34-21 130.84-20.05 129.34-19.1 127.94-17.55L127.94-17.55Q125.79-15.15 124.66-12.23 123.54-9.3 123.54-6.1L123.54-6.1Q123.54-2.05 125.34-1.25L125.34-1.25Q126.09-1.35 127.09-1.7 128.09-2.05 129.24-2.63 130.39-3.2 131.61-3.95 132.84-4.7 133.99-5.55L133.99-5.55Q134.19-5.4 134.34-5.1 134.49-4.8 134.49-4.55L134.49-4.55Q133.64-3.5 132.54-2.5 131.44-1.5 130.24-0.68 129.04 0.15 127.91 0.73 126.79 1.3 125.94 1.45L125.94 1.45Q124.29 1.3 122.84 0.43 121.39-0.45 120.31-1.85 119.24-3.25 118.61-5.05 117.99-6.85 117.99-8.8ZM155.94-20.2L155.94-20.2Q156.44-20.2 157.11-20.03 157.79-19.85 158.34-19.58 158.89-19.3 159.26-19 159.64-18.7 159.64-18.45L159.64-18.45Q158.64-16.35 157.79-14.23 156.94-12.1 156.34-10.15 155.74-8.2 155.41-6.5 155.09-4.8 155.09-3.55L155.09-3.55Q155.09-2.15 155.39-1.23 155.69-0.3 156.39 0.1L156.39 0.1Q155.79 0.5 154.84 0.75 153.89 1 153.14 1L153.14 1Q150.44 1 150.44-2.7L150.44-2.7Q150.44-5.55 152.34-10.5L152.34-10.5Q151.34-8.2 150.03-6.18 148.74-4.15 147.39-2.6 146.03-1.05 144.66-0.08 143.28 0.9 142.14 1.1L142.14 1.1Q140.28 1 139.14-0.68 137.99-2.35 137.99-4.95L137.99-4.95Q137.99-7.75 139.19-10.85 140.39-13.95 142.26-16.6 144.14-19.25 146.34-21.03 148.53-22.8 150.59-22.9L150.59-22.9Q151.09-22.75 151.71-22.3 152.34-21.85 152.91-21.25 153.49-20.65 153.89-20.03 154.29-19.4 154.34-18.95L154.34-18.95Q152.34-18.65 150.21-17 148.09-15.35 146.36-13.03 144.64-10.7 143.53-8.05 142.44-5.4 142.44-3.1L142.44-3.1Q142.44-2.15 143.14-1.9L143.14-1.9Q144.59-2.2 146.49-4.38 148.39-6.55 151.09-11.1L151.09-11.1Q151.59-12 152.21-13.1 152.84-14.2 153.49-15.4 154.14-16.6 154.76-17.82 155.39-19.05 155.94-20.2ZM158.53 16.55L158.53 16.55Q157.83 16.35 157.73 15.05L157.73 15.05Q157.53 14.4 157.46 13.5 157.38 12.6 157.38 11.45L157.38 11.45Q157.38 10.4 157.73 8.58 158.08 6.75 158.71 4.45 159.33 2.15 160.23-0.53 161.13-3.2 162.23-5.95L162.23-5.95Q163.58-9.4 164.58-11.93 165.58-14.45 166.26-16.3 166.93-18.15 167.36-19.35 167.78-20.55 168.03-21.4L168.03-21.4Q168.23-22 168.63-22.85 169.03-23.7 169.56-24.58 170.08-25.45 170.63-26.23 171.18-27 171.63-27.4L171.63-27.4Q173.38-27.15 174.93-26.5 176.48-25.85 176.83-25.25L176.83-25.25Q176.13-24.6 175.23-23.23 174.33-21.85 173.48-20.23 172.63-18.6 171.93-16.9 171.23-15.2 170.88-13.9L170.88-13.9Q171.38-14.75 172.18-15.75 172.98-16.75 174.63-18.5L174.63-18.5Q176.48-20.4 178.11-21.43 179.73-22.45 180.93-22.45L180.93-22.45Q182.83-22.45 184.06-21.4 185.28-20.35 185.28-18.7L185.28-18.7Q185.28-15.1 184.08-11.58 182.88-8.05 180.63-5.2L180.63-5.2Q179.78-4.1 178.63-3.1 177.48-2.1 176.23-1.33 174.98-0.55 173.78-0.1 172.58 0.35 171.63 0.35L171.63 0.35Q170.73 0.35 170.06-0.03 169.38-0.4 169.13-0.95L169.13-0.95Q171.08-2.1 172.93-4.15 174.78-6.2 176.36-8.88 177.93-11.55 179.11-14.65 180.28-17.75 180.88-20.95L180.88-20.95Q178.98-19.95 177.46-18.78 175.93-17.6 174.43-15.7L174.43-15.7Q172.63-13.5 171.58-12.15 170.53-10.8 169.86-9.85 169.18-8.9 168.76-8.08 168.33-7.25 167.83-6.05L167.83-6.05Q167.13-4.45 166.21-1.83 165.28 0.8 164.31 4.05 163.33 7.3 162.36 10.98 161.38 14.65 160.48 18.3L160.48 18.3Q159.93 18.2 159.53 17.5L159.53 17.5Q159.13 17.05 158.96 16.85 158.78 16.65 158.53 16.55ZM187.13-3.35L187.13-3.35Q187.13-3.8 187.21-4.48 187.28-5.15 187.48-6.28 187.68-7.4 188.01-9 188.33-10.6 188.83-12.85L188.83-12.85Q188.93-13.35 189.28-14.45 189.63-15.55 190.21-16.78 190.78-18 191.61-19.15 192.43-20.3 193.58-20.85L193.58-20.85Q194.43-20.65 195.83-19.83 197.23-19 198.23-17.55L198.23-17.55Q197.08-16.25 196.31-14.95 195.53-13.65 194.91-12.25 194.28-10.85 193.76-9.35 193.23-7.85 192.58-6.2L192.58-6.2Q192.03-4.8 191.58-3.33 191.13-1.85 191.08-0.75L191.08-0.75Q191.08 0.15 191.06 0.53 191.03 0.9 190.78 0.9L190.78 0.9Q190.58 0.9 189.98 0.65 189.38 0.4 188.76-0.13 188.13-0.65 187.63-1.45 187.13-2.25 187.13-3.35ZM196.68-25.05L196.68-25.05Q196.68-25.35 196.83-25.95L196.83-25.95Q196.58-26.2 196.41-26.7 196.23-27.2 196.23-27.6L196.23-27.6Q196.23-28.05 196.36-28.83 196.48-29.6 196.68-30.5 196.88-31.4 197.18-32.38 197.48-33.35 197.78-34.15L197.78-34.15Q198.38-34.15 199.26-33.83 200.13-33.5 201.03-32.98 201.93-32.45 202.68-31.83 203.43-31.2 203.83-30.65L203.83-30.65Q203.28-30.1 202.38-29.13 201.48-28.15 200.63-27.08 199.78-26 199.08-25.05 198.38-24.1 198.18-23.7L198.18-23.7Q197.58-23.8 197.13-24.23 196.68-24.65 196.68-25.05ZM206.98-24.25L206.98-24.25Q208.28-23.85 209.43-22.48 210.58-21.1 211.13-19.45L211.13-19.45Q210.58-18.1 209.43-16.2 208.28-14.3 207.13-12.33 205.98-10.35 205.05-8.58 204.13-6.8 203.98-5.65L203.98-5.65Q204.78-6.5 205.75-7.63 206.73-8.75 207.65-9.88 208.58-11 209.38-11.93 210.18-12.85 210.63-13.3L210.63-13.3Q211.58-14.3 212.88-15.63 214.18-16.95 215.6-18.13 217.03-19.3 218.48-20.13 219.93-20.95 221.13-20.95L221.13-20.95Q222.43-20.95 223.3-20.08 224.18-19.2 224.68-18.25L224.68-18.25Q224.68-18.15 224.3-17.98 223.93-17.8 223.23-17L223.23-17Q222.53-16.1 221.65-14.53 220.78-12.95 219.95-11.13 219.13-9.3 218.58-7.4 218.03-5.5 218.03-3.95L218.03-3.95Q218.03-2.7 218.35-2.35 218.68-2 219.28-2L219.28-2Q219.83-2 220.43-2.25 221.03-2.5 221.38-2.5L221.38-2.5Q221.58-2.4 221.7-2.08 221.83-1.75 221.83-1.5L221.83-1.5Q221.43-1.15 220.88-0.8 220.33-0.45 219.73-0.15 219.13 0.15 218.55 0.35 217.98 0.55 217.53 0.55L217.53 0.55Q216.08 0.55 215.15 0.13 214.23-0.3 213.7-1 213.18-1.7 212.98-2.68 212.78-3.65 212.78-4.75L212.78-4.75Q212.78-5.35 212.88-6.1 212.98-6.85 213.28-7.88 213.58-8.9 214.13-10.33 214.68-11.75 215.53-13.75L215.53-13.75Q215.43-13.75 214.18-13.05 212.93-12.35 211.48-10.9L211.48-10.9Q209.13-8.65 207.25-6.45 205.38-4.25 203.43-1.55L203.43-1.55Q202.33 0 201.5 1.07 200.68 2.15 200.08 2.5L200.08 2.5Q199.03 1.9 198.53 0.83 198.03-0.25 197.78-1.4L197.78-1.4Q197.78-2.35 198.05-3.8 198.33-5.25 198.8-7.03 199.28-8.8 199.98-10.75 200.68-12.7 201.53-14.65L201.53-14.65Q203.43-19.05 205-21.55 206.58-24.05 206.98-24.25ZM215.78 14.9L215.78 14.9Q215.78 14.6 215.98 14.35 216.18 14.1 216.43 13.85L216.43 13.85Q217.03 14.4 217.45 14.7 217.88 15 218.25 15.2 218.63 15.4 219.03 15.45 219.43 15.5 219.98 15.5L219.98 15.5Q222.58 15.5 224.93 14.13 227.28 12.75 229.35 10.15 231.43 7.55 233.13 3.8 234.83 0.05 236.13-4.7L236.13-4.7Q235.53-4.1 234.65-3.38 233.78-2.65 232.83-2 231.88-1.35 230.95-0.8 230.03-0.25 229.38 0L229.38 0Q228.53-0.15 227.8-0.73 227.08-1.3 226.53-2.15 225.98-3 225.68-4.08 225.38-5.15 225.38-6.35L225.38-6.35Q225.38-8.3 226.1-10.35 226.83-12.4 228.03-14.38 229.23-16.35 230.85-18.1 232.48-19.85 234.3-21.15 236.13-22.45 238-23.23 239.88-24 241.68-24L241.68-24Q243.43-24 244.3-23.28 245.18-22.55 245.58-20.8L245.58-20.8Q245.03-21.1 244.18-21.1L244.18-21.1Q242.98-21.1 241.4-20.15 239.83-19.2 238.2-17.68 236.58-16.15 234.98-14.18 233.38-12.2 232.15-10.15 230.93-8.1 230.15-6.15 229.38-4.2 229.38-2.65L229.38-2.65Q229.38-2.3 229.43-2.23 229.48-2.15 229.58-2.15L229.58-2.15Q230.03-2.15 230.8-2.65 231.58-3.15 232.55-3.93 233.53-4.7 234.58-5.73 235.63-6.75 236.58-7.8L236.58-7.8Q238.73-10.2 240.5-13.18 242.28-16.15 243.33-18.95L243.33-18.95Q244.68-18.85 245.73-18.5 246.78-18.15 247.18-17.75L247.18-17.75Q245.48-13.85 244.45-11.2 243.43-8.55 242.68-6.5L242.68-6.5Q241.33-2.9 240.15 0.08 238.98 3.05 237.75 5.58 236.53 8.1 235.1 10.28 233.68 12.45 231.88 14.45L231.88 14.45Q231.03 15.4 229.95 16.13 228.88 16.85 227.75 17.35 226.63 17.85 225.55 18.1 224.48 18.35 223.58 18.35L223.58 18.35Q222.38 18.35 221.13 18.07 219.88 17.8 218.8 17.32 217.73 16.85 216.93 16.23 216.13 15.6 215.78 14.9ZM277.52-20.2L277.52-20.2Q278.02-20.2 278.7-20.03 279.37-19.85 279.92-19.58 280.47-19.3 280.85-19 281.22-18.7 281.22-18.45L281.22-18.45Q280.22-16.35 279.37-14.23 278.52-12.1 277.92-10.15 277.32-8.2 277-6.5 276.67-4.8 276.67-3.55L276.67-3.55Q276.67-2.15 276.97-1.23 277.27-0.3 277.97 0.1L277.97 0.1Q277.37 0.5 276.42 0.75 275.47 1 274.72 1L274.72 1Q272.02 1 272.02-2.7L272.02-2.7Q272.02-5.55 273.92-10.5L273.92-10.5Q272.92-8.2 271.62-6.18 270.32-4.15 268.97-2.6 267.62-1.05 266.25-0.08 264.87 0.9 263.72 1.1L263.72 1.1Q261.87 1 260.72-0.68 259.57-2.35 259.57-4.95L259.57-4.95Q259.57-7.75 260.77-10.85 261.97-13.95 263.85-16.6 265.72-19.25 267.92-21.03 270.12-22.8 272.17-22.9L272.17-22.9Q272.67-22.75 273.3-22.3 273.92-21.85 274.5-21.25 275.07-20.65 275.47-20.03 275.87-19.4 275.92-18.95L275.92-18.95Q273.92-18.65 271.8-17 269.67-15.35 267.95-13.03 266.22-10.7 265.12-8.05 264.02-5.4 264.02-3.1L264.02-3.1Q264.02-2.15 264.72-1.9L264.72-1.9Q266.17-2.2 268.07-4.38 269.97-6.55 272.67-11.1L272.67-11.1Q273.17-12 273.8-13.1 274.42-14.2 275.07-15.4 275.72-16.6 276.35-17.82 276.97-19.05 277.52-20.2ZM291.87-24.25L291.87-24.25Q293.17-23.85 294.32-22.48 295.47-21.1 296.02-19.45L296.02-19.45Q295.47-18.1 294.32-16.2 293.17-14.3 292.02-12.33 290.87-10.35 289.94-8.58 289.02-6.8 288.87-5.65L288.87-5.65Q289.67-6.5 290.64-7.63 291.62-8.75 292.54-9.88 293.47-11 294.27-11.93 295.07-12.85 295.52-13.3L295.52-13.3Q296.47-14.3 297.77-15.63 299.07-16.95 300.49-18.13 301.92-19.3 303.37-20.13 304.82-20.95 306.02-20.95L306.02-20.95Q307.32-20.95 308.19-20.08 309.07-19.2 309.57-18.25L309.57-18.25Q309.57-18.15 309.19-17.98 308.82-17.8 308.12-17L308.12-17Q307.42-16.1 306.54-14.53 305.67-12.95 304.84-11.13 304.02-9.3 303.47-7.4 302.92-5.5 302.92-3.95L302.92-3.95Q302.92-2.7 303.24-2.35 303.57-2 304.17-2L304.17-2Q304.72-2 305.32-2.25 305.92-2.5 306.27-2.5L306.27-2.5Q306.47-2.4 306.59-2.08 306.72-1.75 306.72-1.5L306.72-1.5Q306.32-1.15 305.77-0.8 305.22-0.45 304.62-0.15 304.02 0.15 303.44 0.35 302.87 0.55 302.42 0.55L302.42 0.55Q300.97 0.55 300.04 0.13 299.12-0.3 298.59-1 298.07-1.7 297.87-2.68 297.67-3.65 297.67-4.75L297.67-4.75Q297.67-5.35 297.77-6.1 297.87-6.85 298.17-7.88 298.47-8.9 299.02-10.33 299.57-11.75 300.42-13.75L300.42-13.75Q300.32-13.75 299.07-13.05 297.82-12.35 296.37-10.9L296.37-10.9Q294.02-8.65 292.14-6.45 290.27-4.25 288.32-1.55L288.32-1.55Q287.22 0 286.39 1.07 285.57 2.15 284.97 2.5L284.97 2.5Q283.92 1.9 283.42 0.83 282.92-0.25 282.67-1.4L282.67-1.4Q282.67-2.35 282.94-3.8 283.22-5.25 283.69-7.03 284.17-8.8 284.87-10.75 285.57-12.7 286.42-14.65L286.42-14.65Q288.32-19.05 289.89-21.55 291.47-24.05 291.87-24.25ZM321.67-23.35L321.67-23.35Q322.67-23.35 323.97-22.75 325.27-22.15 326.27-21.2L326.27-21.2Q326.02-23.2 325.64-24.98 325.27-26.75 324.54-28.65 323.82-30.55 322.62-32.8 321.42-35.05 319.62-37.95L319.62-37.95Q319.77-38.4 320.29-39 320.82-39.6 321.49-40.13 322.17-40.65 322.89-41.05 323.62-41.45 324.27-41.55L324.27-41.55Q325.67-40 326.92-37.68 328.17-35.35 329.12-32.68 330.07-30 330.59-27.15 331.12-24.3 331.12-21.7L331.12-21.7Q331.12-19.1 330.54-16.35 329.97-13.6 328.94-10.98 327.92-8.35 326.57-6 325.22-3.65 323.64-1.8 322.07 0.05 320.37 1.23 318.67 2.4 316.97 2.7L316.97 2.7Q313.52 2.3 311.69 0.48 309.87-1.35 309.87-4.55L309.87-4.55Q309.87-6.25 310.39-8.25 310.92-10.25 311.79-12.23 312.67-14.2 313.84-16.07 315.02-17.95 316.34-19.45 317.67-20.95 319.02-22 320.37-23.05 321.67-23.35ZM316.57 0.7L316.57 0.7Q318.32 0.1 320.07-1.95 321.82-4 323.22-6.78 324.62-9.55 325.49-12.73 326.37-15.9 326.37-18.85L326.37-18.85Q326.37-19.7 326.37-19.9 326.37-20.1 326.32-20.3L326.32-20.3Q325.12-19.8 323.77-18.6 322.42-17.4 321.07-15.83 319.72-14.25 318.52-12.4 317.32-10.55 316.37-8.7 315.42-6.85 314.87-5.15 314.32-3.45 314.32-2.15L314.32-2.15Q314.32 0.35 316.57 0.7ZM346.56-9.8L346.56-9.8Q346.56-13.3 347.39-16.68 348.21-20.05 349.71-23.08 351.21-26.1 353.29-28.63 355.36-31.15 357.84-33 360.31-34.85 363.11-35.88 365.91-36.9 368.86-36.9L368.86-36.9Q372.31-36.9 374.24-35.45 376.16-34 376.16-31.4L376.16-31.4Q376.16-30.4 375.89-29.35 375.61-28.3 375.09-27.28 374.56-26.25 373.86-25.3 373.16-24.35 372.31-23.65L372.31-23.65Q371.01-23.85 370.06-24.83 369.11-25.8 368.86-27.1L368.86-27.1Q370.61-28.55 371.64-30.13 372.66-31.7 372.66-33L372.66-33Q372.66-35.2 369.91-35.2L369.91-35.2Q368.76-35.2 367.54-34.73 366.31-34.25 365.06-33.4 363.81-32.55 362.64-31.35 361.46-30.15 360.46-28.7L360.46-28.7Q353.51-18.7 353.51-8.25L353.51-8.25Q353.51-4.55 354.66-2.3 355.81-0.05 357.71 0.35L357.71 0.35Q359.86-0.15 363.16-2.4 366.46-4.65 370.36-8.25L370.36-8.25Q370.86-7.75 370.96-7.2L370.96-7.2Q369.51-5.3 367.96-3.55 366.41-1.8 364.89-0.35 363.36 1.1 361.89 2.2 360.41 3.3 359.16 3.9L359.16 3.9Q352.96 3.8 349.76 0.35 346.56-3.1 346.56-9.8ZM380.16 1.75L380.16 1.75Q377.31 1.45 375.61-0.75 373.91-2.95 373.91-6.35L373.91-6.35Q373.91-8.35 374.51-10.5 375.11-12.65 376.21-14.68 377.31-16.7 378.81-18.5 380.31-20.3 382.06-21.6L382.06-21.6Q384.81-23.65 387.21-23.65L387.21-23.65Q388.81-22.8 390.36-20.1L390.36-20.1Q390.61-20.1 390.81-20.13 391.01-20.15 391.26-20.15L391.26-20.15Q393.91-20.15 393.91-15.45L393.91-15.45Q393.91-12.3 392.88-9.47 391.86-6.65 390.03-4.35 388.21-2.05 385.68-0.48 383.16 1.1 380.16 1.75ZM382.71-14L382.71-14Q381.86-12.85 381.11-11.5 380.36-10.15 379.81-8.78 379.26-7.4 378.96-6.13 378.66-4.85 378.66-3.85L378.66-3.85Q378.66-2.65 379.06-1.55 379.46-0.45 379.96-0.3L379.96-0.3Q382.21-0.8 384.08-2.18 385.96-3.55 387.33-5.6 388.71-7.65 389.48-10.25 390.26-12.85 390.26-15.8L390.26-15.8Q390.26-17.1 390.11-17.85 389.96-18.6 389.61-19.15L389.61-19.15Q387.41-18.5 385.68-17.05 383.96-15.6 382.71-14ZM404.41-24.25L404.41-24.25Q405.71-23.85 406.86-22.48 408.01-21.1 408.56-19.45L408.56-19.45Q408.01-18.1 406.86-16.2 405.71-14.3 404.56-12.33 403.41-10.35 402.48-8.58 401.56-6.8 401.41-5.65L401.41-5.65Q402.21-6.5 403.18-7.63 404.16-8.75 405.08-9.88 406.01-11 406.81-11.93 407.61-12.85 408.06-13.3L408.06-13.3Q409.01-14.3 410.31-15.63 411.61-16.95 413.03-18.13 414.46-19.3 415.91-20.13 417.36-20.95 418.56-20.95L418.56-20.95Q419.86-20.95 420.73-20.08 421.61-19.2 422.11-18.25L422.11-18.25Q422.11-18.15 421.73-17.98 421.36-17.8 420.66-17L420.66-17Q419.96-16.1 419.08-14.53 418.21-12.95 417.38-11.13 416.56-9.3 416.01-7.4 415.46-5.5 415.46-3.95L415.46-3.95Q415.46-2.7 415.78-2.35 416.11-2 416.71-2L416.71-2Q417.26-2 417.86-2.25 418.46-2.5 418.81-2.5L418.81-2.5Q419.01-2.4 419.13-2.08 419.26-1.75 419.26-1.5L419.26-1.5Q418.86-1.15 418.31-0.8 417.76-0.45 417.16-0.15 416.56 0.15 415.98 0.35 415.41 0.55 414.96 0.55L414.96 0.55Q413.51 0.55 412.58 0.13 411.66-0.3 411.13-1 410.61-1.7 410.41-2.68 410.21-3.65 410.21-4.75L410.21-4.75Q410.21-5.35 410.31-6.1 410.41-6.85 410.71-7.88 411.01-8.9 411.56-10.33 412.11-11.75 412.96-13.75L412.96-13.75Q412.86-13.75 411.61-13.05 410.36-12.35 408.91-10.9L408.91-10.9Q406.56-8.65 404.68-6.45 402.81-4.25 400.86-1.55L400.86-1.55Q399.76 0 398.93 1.07 398.11 2.15 397.51 2.5L397.51 2.5Q396.46 1.9 395.96 0.83 395.46-0.25 395.21-1.4L395.21-1.4Q395.21-2.35 395.48-3.8 395.76-5.25 396.23-7.03 396.71-8.8 397.41-10.75 398.11-12.7 398.96-14.65L398.96-14.65Q400.86-19.05 402.43-21.55 404.01-24.05 404.41-24.25ZM440.55-19.9L440.55-19.9Q440.5-18.95 440.23-17.93 439.95-16.9 439.55-16.07 439.15-15.25 438.7-14.7 438.25-14.15 437.85-14.15L437.85-14.15Q437.3-14.2 437.2-14.9L437.2-14.9Q437.2-15.05 437.33-15.38 437.45-15.7 437.6-16.1 437.75-16.5 437.88-16.9 438-17.3 438-17.6L438-17.6Q438-18.3 437.68-18.78 437.35-19.25 436.8-19.25L436.8-19.25Q434.8-19.25 433.75-16.75 432.7-14.25 432.7-9.4L432.7-9.4Q432.7-8.9 432.75-8.8L432.75-8.8Q433.8-8.85 434.63-8.88 435.45-8.9 436.25-8.9L436.25-8.9Q436.3-8.8 436.3-8.5L436.3-8.5Q436.3-8.05 436.1-7.85L436.1-7.85Q434.95-7.6 434.28-7.43 433.6-7.25 433.25-7.1 432.9-6.95 432.83-6.78 432.75-6.6 432.75-6.3L432.75-6.3Q432.75-5.9 432.78-5.5 432.8-5.1 432.8-4.5L432.8-4.5Q432.8-0.3 430.53 2.25 428.25 4.8 424.2 5.2L424.2 5.2Q423.5 5.15 422.75 4.8 422 4.45 421.33 3.9 420.65 3.35 420.15 2.68 419.65 2 419.45 1.3L419.45 1.3Q419.45-0.6 420.25-2.33 421.05-4.05 422.43-5.38 423.8-6.7 425.68-7.53 427.55-8.35 429.75-8.5L429.75-8.5Q429.75-9.75 429.5-10.95 429.25-12.15 428.98-13.28 428.7-14.4 428.45-15.48 428.2-16.55 428.2-17.6L428.2-17.6Q428.2-18.95 428.75-20.28 429.3-21.6 430.2-22.73 431.1-23.85 432.3-24.65 433.5-25.45 434.8-25.75L434.8-25.75Q435.35-25.6 436.28-24.88 437.2-24.15 438.1-23.25 439-22.35 439.7-21.43 440.4-20.5 440.55-19.9ZM424.05 2.9L424.05 2.9Q425.25 2.4 426.33 1.45 427.4 0.5 428.2-0.7 429-1.9 429.48-3.25 429.95-4.6 429.95-5.9L429.95-5.9Q428.95-5.75 427.75-4.98 426.55-4.2 425.5-3.13 424.45-2.05 423.75-0.9 423.05 0.25 423.05 1.1L423.05 1.1Q423.05 2.2 424.05 2.9ZM446.4-19.15L443.55-19.15Q443.3-19.45 443.1-20.43 442.9-21.4 442.9-22.1L442.9-22.1Q444.2-22 445.4-21.93 446.6-21.85 447.6-21.8L447.6-21.8Q448.35-23.3 449.23-24.78 450.1-26.25 450.93-27.48 451.75-28.7 452.48-29.55 453.2-30.4 453.6-30.65L453.6-30.65Q454.1-30.65 454.88-30.48 455.65-30.3 456.45-30.03 457.25-29.75 457.9-29.45 458.55-29.15 458.8-28.85L458.8-28.85Q457.3-26.95 456.23-25.33 455.15-23.7 453.9-21.6L453.9-21.6Q454.9-21.6 455.93-21.65 456.95-21.7 458-21.8L458-21.8Q458.25-21.55 458.4-21.18 458.55-20.8 458.55-20.4L458.55-20.4Q456.1-19.5 452.6-19.4L452.6-19.4Q451.35-17 450.38-14.63 449.4-12.25 448.73-10.05 448.05-7.85 447.68-5.9 447.3-3.95 447.3-2.4L447.3-2.4Q447.3-0.2 448.95 0.05L448.95 0.05Q450.45-0.15 451.8-0.7 453.15-1.25 454.2-2.1L454.2-2.1Q454.5-1.65 454.55-1.35L454.55-1.35Q454.25-0.9 453.53-0.3 452.8 0.3 451.95 0.88 451.1 1.45 450.3 1.85 449.5 2.25 449.1 2.3L449.1 2.3Q447.85 2.25 446.6 1.75 445.35 1.25 444.33 0.5 443.3-0.25 442.65-1.18 442-2.1 442-3L442-3Q442-4.2 442.33-6.03 442.65-7.85 443.25-10 443.85-12.15 444.65-14.5 445.45-16.85 446.4-19.15L446.4-19.15ZM457-1L457-1Q457.25-2.45 457.87-4.83 458.5-7.2 459.35-9.88 460.2-12.55 461.15-15.25 462.1-17.95 463-20.1L463-20.1Q463.65-21.65 464.15-22.53 464.65-23.4 465.25-24L465.25-24Q465.95-23.9 466.7-23.65 467.45-23.4 468.15-23.05 468.85-22.7 469.4-22.33 469.95-21.95 470.25-21.6L470.25-21.6Q468.9-20 467.87-17.95 466.85-15.9 465.8-12.7L465.8-12.7Q468.5-15.1 470.57-17.3 472.65-19.5 474.45-22.2L474.45-22.2Q474.75-22.45 475.5-22.45L475.5-22.45Q476.2-22.45 476.85-22.23 477.5-22 477.75-21.6L477.75-21.6Q476.85-19.2 476.85-16.85L476.85-16.85Q476.85-14.65 477.5-13.55L477.5-13.55Q477.45-13.25 476.82-12.4 476.2-11.55 475.45-10.8L475.45-10.8Q474.1-11.5 473.05-12.73 472-13.95 471.5-15.4L471.5-15.4Q469.15-13.75 467.5-12.18 465.85-10.6 464.67-8.68 463.5-6.75 462.67-4.25 461.85-1.75 461.1 1.7L461.1 1.7Q460.65 1.65 460.02 1.38 459.4 1.1 458.77 0.7 458.15 0.3 457.65-0.15 457.15-0.6 457-1ZM491.95-1.1L491.95-1.1Q491-1.9 490.67-3.1 490.35-4.3 490.35-5.15L490.35-5.15Q490.35-6.2 490.6-6.95L490.6-6.95Q490.4-6.95 489.7-6.15 489-5.35 488.17-4.25 487.35-3.15 486.55-2.1 485.75-1.05 485.35-0.55L485.35-0.55Q484.7 0.15 484.12 0.55 483.55 0.95 483.2 1L483.2 1Q482.4 0.95 481.52 0.68 480.65 0.4 479.87-0.1 479.1-0.6 478.52-1.3 477.95-2 477.75-2.9L477.75-2.9Q477.75-4.3 477.82-5.2 477.9-6.1 478.15-7.15L478.15-7.15Q478.6-9.05 479.47-11.45 480.35-13.85 481.5-16.18 482.65-18.5 484.07-20.53 485.5-22.55 487.1-23.7L487.1-23.7Q487.55-23.7 488.15-23.63 488.75-23.55 489.37-23.35 490-23.15 490.57-22.88 491.15-22.6 491.55-22.15L491.55-22.15Q491.1-21.65 489.27-18.8 487.45-15.95 485.2-10.6L485.2-10.6Q484.95-10.05 484.6-9 484.25-7.95 483.9-6.8 483.55-5.65 483.32-4.55 483.1-3.45 483.1-2.8L483.1-2.8Q483.1-2.4 483.22-2.2 483.35-2 483.45-1.9L483.45-1.9Q484.2-2.2 485.35-3.55 486.5-4.9 488.55-7.7L488.55-7.7Q489.05-8.4 489.72-9.3 490.4-10.2 491.1-11.23 491.8-12.25 492.42-13.35 493.05-14.45 493.45-15.55L493.45-15.55Q493.65-16.15 493.97-16.98 494.3-17.8 494.77-18.7 495.25-19.6 495.87-20.53 496.5-21.45 497.35-22.25L497.35-22.25Q498-22.25 498.75-22.1 499.5-21.95 500.17-21.73 500.85-21.5 501.35-21.23 501.85-20.95 502.1-20.65L502.1-20.65Q501.2-18.45 500.1-16.3 499-14.15 498.05-12.08 497.1-10 496.45-7.95 495.8-5.9 495.8-3.95L495.8-3.95Q495.8-2.9 495.97-2.13 496.15-1.35 496.35-0.83 496.55-0.3 496.72 0.05 496.9 0.4 496.9 0.65L496.9 0.65Q496.9 0.7 496.8 0.8L496.8 0.8Q496.75 0.85 496.7 0.85L496.7 0.85Q496.35 0.85 495.8 0.7 495.25 0.55 494.57 0.28 493.9 0 493.22-0.35 492.55-0.7 491.95-1.1ZM503.09-8.8L503.09-8.8Q503.09-11.65 504.27-14.33 505.44-17 507.37-19.07 509.29-21.15 511.77-22.43 514.24-23.7 516.89-23.7L516.89-23.7Q519.49-23.7 520.89-22.4 522.29-21.1 522.29-18.7L522.29-18.7Q522.29-17.55 521.97-16.48 521.64-15.4 521.12-14.55 520.59-13.7 519.89-13.18 519.19-12.65 518.49-12.65L518.49-12.65Q517.89-12.65 517.27-13.03 516.64-13.4 516.24-14L516.24-14Q519.59-17.05 519.59-19.55L519.59-19.55Q519.59-21 518.44-21L518.44-21Q517.44-21 515.94-20.05 514.44-19.1 513.04-17.55L513.04-17.55Q510.89-15.15 509.77-12.23 508.64-9.3 508.64-6.1L508.64-6.1Q508.64-2.05 510.44-1.25L510.44-1.25Q511.19-1.35 512.19-1.7 513.19-2.05 514.34-2.63 515.49-3.2 516.72-3.95 517.94-4.7 519.09-5.55L519.09-5.55Q519.29-5.4 519.44-5.1 519.59-4.8 519.59-4.55L519.59-4.55Q518.74-3.5 517.64-2.5 516.54-1.5 515.34-0.68 514.14 0.15 513.02 0.73 511.89 1.3 511.04 1.45L511.04 1.45Q509.39 1.3 507.94 0.43 506.49-0.45 505.42-1.85 504.34-3.25 503.72-5.05 503.09-6.85 503.09-8.8ZM529.39-19.15L526.54-19.15Q526.29-19.45 526.09-20.43 525.89-21.4 525.89-22.1L525.89-22.1Q527.19-22 528.39-21.93 529.59-21.85 530.59-21.8L530.59-21.8Q531.34-23.3 532.22-24.78 533.09-26.25 533.91-27.48 534.74-28.7 535.47-29.55 536.19-30.4 536.59-30.65L536.59-30.65Q537.09-30.65 537.87-30.48 538.64-30.3 539.44-30.03 540.24-29.75 540.89-29.45 541.54-29.15 541.79-28.85L541.79-28.85Q540.29-26.95 539.22-25.33 538.14-23.7 536.89-21.6L536.89-21.6Q537.89-21.6 538.91-21.65 539.94-21.7 540.99-21.8L540.99-21.8Q541.24-21.55 541.39-21.18 541.54-20.8 541.54-20.4L541.54-20.4Q539.09-19.5 535.59-19.4L535.59-19.4Q534.34-17 533.37-14.63 532.39-12.25 531.72-10.05 531.04-7.85 530.66-5.9 530.29-3.95 530.29-2.4L530.29-2.4Q530.29-0.2 531.94 0.05L531.94 0.05Q533.44-0.15 534.79-0.7 536.14-1.25 537.19-2.1L537.19-2.1Q537.49-1.65 537.54-1.35L537.54-1.35Q537.24-0.9 536.51-0.3 535.79 0.3 534.94 0.88 534.09 1.45 533.29 1.85 532.49 2.25 532.09 2.3L532.09 2.3Q530.84 2.25 529.59 1.75 528.34 1.25 527.32 0.5 526.29-0.25 525.64-1.18 524.99-2.1 524.99-3L524.99-3Q524.99-4.2 525.32-6.03 525.64-7.85 526.24-10 526.84-12.15 527.64-14.5 528.44-16.85 529.39-19.15L529.39-19.15ZM541.24-3.35L541.24-3.35Q541.24-3.8 541.31-4.48 541.39-5.15 541.59-6.28 541.79-7.4 542.11-9 542.44-10.6 542.94-12.85L542.94-12.85Q543.04-13.35 543.39-14.45 543.74-15.55 544.31-16.78 544.89-18 545.71-19.15 546.54-20.3 547.69-20.85L547.69-20.85Q548.54-20.65 549.94-19.83 551.34-19 552.34-17.55L552.34-17.55Q551.19-16.25 550.41-14.95 549.64-13.65 549.01-12.25 548.39-10.85 547.86-9.35 547.34-7.85 546.69-6.2L546.69-6.2Q546.14-4.8 545.69-3.33 545.24-1.85 545.19-0.75L545.19-0.75Q545.19 0.15 545.16 0.53 545.14 0.9 544.89 0.9L544.89 0.9Q544.69 0.9 544.09 0.65 543.49 0.4 542.86-0.13 542.24-0.65 541.74-1.45 541.24-2.25 541.24-3.35ZM550.79-25.05L550.79-25.05Q550.79-25.35 550.94-25.95L550.94-25.95Q550.69-26.2 550.51-26.7 550.34-27.2 550.34-27.6L550.34-27.6Q550.34-28.05 550.46-28.83 550.59-29.6 550.79-30.5 550.99-31.4 551.29-32.38 551.59-33.35 551.89-34.15L551.89-34.15Q552.49-34.15 553.36-33.83 554.24-33.5 555.14-32.98 556.04-32.45 556.79-31.83 557.54-31.2 557.94-30.65L557.94-30.65Q557.39-30.1 556.49-29.13 555.59-28.15 554.74-27.08 553.89-26 553.19-25.05 552.49-24.1 552.29-23.7L552.29-23.7Q551.69-23.8 551.24-24.23 550.79-24.65 550.79-25.05ZM558.88 1.75L558.88 1.75Q556.03 1.45 554.33-0.75 552.63-2.95 552.63-6.35L552.63-6.35Q552.63-8.35 553.23-10.5 553.83-12.65 554.93-14.68 556.03-16.7 557.53-18.5 559.03-20.3 560.78-21.6L560.78-21.6Q563.53-23.65 565.93-23.65L565.93-23.65Q567.53-22.8 569.08-20.1L569.08-20.1Q569.33-20.1 569.53-20.13 569.73-20.15 569.98-20.15L569.98-20.15Q572.63-20.15 572.63-15.45L572.63-15.45Q572.63-12.3 571.61-9.47 570.58-6.65 568.76-4.35 566.93-2.05 564.41-0.48 561.88 1.1 558.88 1.75ZM561.43-14L561.43-14Q560.58-12.85 559.83-11.5 559.08-10.15 558.53-8.78 557.98-7.4 557.68-6.13 557.38-4.85 557.38-3.85L557.38-3.85Q557.38-2.65 557.78-1.55 558.18-0.45 558.68-0.3L558.68-0.3Q560.93-0.8 562.81-2.18 564.68-3.55 566.06-5.6 567.43-7.65 568.21-10.25 568.98-12.85 568.98-15.8L568.98-15.8Q568.98-17.1 568.83-17.85 568.68-18.6 568.33-19.15L568.33-19.15Q566.13-18.5 564.41-17.05 562.68-15.6 561.43-14ZM583.13-24.25L583.13-24.25Q584.43-23.85 585.58-22.48 586.73-21.1 587.28-19.45L587.28-19.45Q586.73-18.1 585.58-16.2 584.43-14.3 583.28-12.33 582.13-10.35 581.21-8.58 580.28-6.8 580.13-5.65L580.13-5.65Q580.93-6.5 581.91-7.63 582.88-8.75 583.81-9.88 584.73-11 585.53-11.93 586.33-12.85 586.78-13.3L586.78-13.3Q587.73-14.3 589.03-15.63 590.33-16.95 591.76-18.13 593.18-19.3 594.63-20.13 596.08-20.95 597.28-20.95L597.28-20.95Q598.58-20.95 599.46-20.08 600.33-19.2 600.83-18.25L600.83-18.25Q600.83-18.15 600.46-17.98 600.08-17.8 599.38-17L599.38-17Q598.68-16.1 597.81-14.53 596.93-12.95 596.11-11.13 595.28-9.3 594.73-7.4 594.18-5.5 594.18-3.95L594.18-3.95Q594.18-2.7 594.51-2.35 594.83-2 595.43-2L595.43-2Q595.98-2 596.58-2.25 597.18-2.5 597.53-2.5L597.53-2.5Q597.73-2.4 597.86-2.08 597.98-1.75 597.98-1.5L597.98-1.5Q597.58-1.15 597.03-0.8 596.48-0.45 595.88-0.15 595.28 0.15 594.71 0.35 594.13 0.55 593.68 0.55L593.68 0.55Q592.23 0.55 591.31 0.13 590.38-0.3 589.86-1 589.33-1.7 589.13-2.68 588.93-3.65 588.93-4.75L588.93-4.75Q588.93-5.35 589.03-6.1 589.13-6.85 589.43-7.88 589.73-8.9 590.28-10.33 590.83-11.75 591.68-13.75L591.68-13.75Q591.58-13.75 590.33-13.05 589.08-12.35 587.63-10.9L587.63-10.9Q585.28-8.65 583.41-6.45 581.53-4.25 579.58-1.55L579.58-1.55Q578.48 0 577.66 1.07 576.83 2.15 576.23 2.5L576.23 2.5Q575.18 1.9 574.68 0.83 574.18-0.25 573.93-1.4L573.93-1.4Q573.93-2.35 574.21-3.8 574.48-5.25 574.96-7.03 575.43-8.8 576.13-10.75 576.83-12.7 577.68-14.65L577.68-14.65Q579.58-19.05 581.16-21.55 582.73-24.05 583.13-24.25ZM646.73-33.7L646.73-33.7Q646.88-32.85 646.95-32.52 647.03-32.2 647.03-31.65L647.03-31.65Q647.03-30 646.3-28.58 645.58-27.15 644.33-26.55L644.33-26.55Q643.33-27.9 641.88-28.88 640.43-29.85 638.7-30.48 636.98-31.1 635.13-31.4 633.28-31.7 631.53-31.7L631.53-31.7Q629.78-31.7 628.25-31.43 626.73-31.15 625.55-30.68 624.38-30.2 623.7-29.5 623.03-28.8 623.03-27.9L623.03-27.9Q623.18-26.8 624.38-25.68 625.58-24.55 627.33-23.48 629.08-22.4 631.2-21.35 633.33-20.3 635.38-19.35L635.38-19.35Q637.93-18.15 639.78-17.13 641.63-16.1 642.83-14.88 644.03-13.65 644.63-12.1 645.23-10.55 645.23-8.35L645.23-8.35Q645.23-5.8 644.38-3.58 643.53-1.35 641.9 0.3 640.28 1.95 637.98 2.88 635.68 3.8 632.83 3.8L632.83 3.8Q630.03 3.8 626.78 2.95 623.53 2.1 620.7 0.63 617.88-0.85 616-2.78 614.13-4.7 614.13-6.85L614.13-6.85Q614.13-7.85 614.7-9.4 615.28-10.95 616.78-12.65L616.78-12.65Q616.93-11.15 618.4-9.1 619.88-7.05 622.83-5.3L622.83-5.3Q625.58-3.7 628.5-2.98 631.43-2.25 633.98-2.25L633.98-2.25Q636.78-2.25 638.53-2.95 640.28-3.65 641.28-4.63 642.28-5.6 642.68-6.6 643.08-7.6 643.13-8.2L643.13-8.2Q643.08-9.2 642.2-10.13 641.33-11.05 639.85-11.93 638.38-12.8 636.43-13.7 634.48-14.6 632.38-15.5L632.38-15.5Q629.23-16.9 626.95-18.13 624.68-19.35 623.2-20.63 621.73-21.9 621.05-23.3 620.38-24.7 620.38-26.5L620.38-26.5Q620.38-29.3 622.08-31.8 623.78-34.3 626.98-35.6L626.98-35.6Q628.58-36.3 630.4-36.6 632.23-36.9 633.98-36.9L633.98-36.9Q637.28-36.9 640.43-36 643.58-35.1 646.73-33.7ZM666.92-20.7L666.92-20.7Q666.72-17.6 665.82-15.38 664.92-13.15 663.25-11.48 661.57-9.8 659.17-8.45 656.77-7.1 653.57-5.85L653.57-5.85Q653.57-5.55 653.55-5.23 653.52-4.9 653.52-4.55L653.52-4.55Q653.52-3.9 653.62-3.2 653.72-2.5 653.97-1.9 654.22-1.3 654.67-0.93 655.12-0.55 655.82-0.55L655.82-0.55Q657.17-0.55 658.47-1.15 659.77-1.75 660.95-2.63 662.12-3.5 663.15-4.53 664.17-5.55 664.97-6.4L664.97-6.4Q665.47-5.95 665.82-5.55L665.82-5.55Q663.57-2.55 660.9-0.58 658.22 1.4 655.82 1.95L655.82 1.95Q652.37 1.55 650.45-0.58 648.52-2.7 648.52-5.7L648.52-5.7Q648.52-7.75 649.1-9.88 649.67-12 650.7-13.98 651.72-15.95 653.1-17.7 654.47-19.45 656.05-20.75 657.62-22.05 659.3-22.8 660.97-23.55 662.62-23.55L662.62-23.55Q664.92-23.25 666.92-20.7ZM663.47-19.05L663.47-19.05Q662.12-18.85 660.67-17.95 659.22-17.05 657.95-15.55 656.67-14.05 655.62-12.05 654.57-10.05 653.97-7.75L653.97-7.75Q657.97-9.75 660.62-12.68 663.27-15.6 663.47-19.05ZM668.02-1L668.02-1Q668.27-2.45 668.9-4.83 669.52-7.2 670.37-9.88 671.22-12.55 672.17-15.25 673.12-17.95 674.02-20.1L674.02-20.1Q674.67-21.65 675.17-22.53 675.67-23.4 676.27-24L676.27-24Q676.97-23.9 677.72-23.65 678.47-23.4 679.17-23.05 679.87-22.7 680.42-22.33 680.97-21.95 681.27-21.6L681.27-21.6Q679.92-20 678.9-17.95 677.87-15.9 676.82-12.7L676.82-12.7Q679.52-15.1 681.6-17.3 683.67-19.5 685.47-22.2L685.47-22.2Q685.77-22.45 686.52-22.45L686.52-22.45Q687.22-22.45 687.87-22.23 688.52-22 688.77-21.6L688.77-21.6Q687.87-19.2 687.87-16.85L687.87-16.85Q687.87-14.65 688.52-13.55L688.52-13.55Q688.47-13.25 687.85-12.4 687.22-11.55 686.47-10.8L686.47-10.8Q685.12-11.5 684.07-12.73 683.02-13.95 682.52-15.4L682.52-15.4Q680.17-13.75 678.52-12.18 676.87-10.6 675.7-8.68 674.52-6.75 673.7-4.25 672.87-1.75 672.12 1.7L672.12 1.7Q671.67 1.65 671.05 1.38 670.42 1.1 669.8 0.7 669.17 0.3 668.67-0.15 668.17-0.6 668.02-1ZM692.12-17.7L692.12-17.7Q692.12-18.6 692.24-19.4 692.37-20.2 692.77-20.78 693.17-21.35 693.87-21.68 694.57-22 695.72-22L695.72-22Q696.42-22 697.29-21.85 698.17-21.7 698.57-21.3L698.57-21.3Q698.37-20.45 698.24-19.8 698.12-19.15 698.04-18.38 697.97-17.6 697.92-16.53 697.87-15.45 697.82-13.75L697.82-13.75Q697.72-10.35 697.49-7.68 697.27-5 696.47-2.35L696.47-2.35Q696.47-2.15 696.62-2.15L696.62-2.15Q697.37-2.7 698.32-3.75 699.27-4.8 700.32-6.13 701.37-7.45 702.42-8.95 703.47-10.45 704.37-11.9L704.37-11.9Q705.57-14 707.02-17.15 708.47-20.3 709.42-23.9L709.42-23.9Q709.72-23.9 710.19-23.78 710.67-23.65 711.14-23.48 711.62-23.3 711.99-23.1 712.37-22.9 712.52-22.75L712.52-22.75Q712.42-20.6 711.49-18.35 710.57-16.1 709.27-14 707.97-11.9 706.52-10.05 705.07-8.2 703.87-6.85L703.87-6.85Q701.47-4.05 699.04-1.85 696.62 0.35 693.27 2.4L693.27 2.4Q691.97 1.9 691.22 1.07 690.47 0.25 690.47-0.65L690.47-0.65Q690.47-1.25 690.74-2.02 691.02-2.8 691.37-4.03 691.72-5.25 691.99-7.1 692.27-8.95 692.27-11.8L692.27-11.8Q692.27-13.45 692.19-15.13 692.12-16.8 692.12-17.7ZM711.82-3.35L711.82-3.35Q711.82-3.8 711.89-4.48 711.97-5.15 712.17-6.28 712.37-7.4 712.69-9 713.02-10.6 713.52-12.85L713.52-12.85Q713.62-13.35 713.97-14.45 714.32-15.55 714.89-16.78 715.47-18 716.29-19.15 717.12-20.3 718.27-20.85L718.27-20.85Q719.12-20.65 720.52-19.83 721.92-19 722.92-17.55L722.92-17.55Q721.77-16.25 720.99-14.95 720.22-13.65 719.59-12.25 718.97-10.85 718.44-9.35 717.92-7.85 717.27-6.2L717.27-6.2Q716.72-4.8 716.27-3.33 715.82-1.85 715.77-0.75L715.77-0.75Q715.77 0.15 715.74 0.53 715.72 0.9 715.47 0.9L715.47 0.9Q715.27 0.9 714.67 0.65 714.07 0.4 713.44-0.13 712.82-0.65 712.32-1.45 711.82-2.25 711.82-3.35ZM721.37-25.05L721.37-25.05Q721.37-25.35 721.52-25.95L721.52-25.95Q721.27-26.2 721.09-26.7 720.92-27.2 720.92-27.6L720.92-27.6Q720.92-28.05 721.04-28.83 721.17-29.6 721.37-30.5 721.57-31.4 721.87-32.38 722.17-33.35 722.47-34.15L722.47-34.15Q723.07-34.15 723.94-33.83 724.82-33.5 725.72-32.98 726.62-32.45 727.37-31.83 728.12-31.2 728.52-30.65L728.52-30.65Q727.97-30.1 727.07-29.13 726.17-28.15 725.32-27.08 724.47-26 723.77-25.05 723.07-24.1 722.87-23.7L722.87-23.7Q722.27-23.8 721.82-24.23 721.37-24.65 721.37-25.05ZM723.86-8.8L723.86-8.8Q723.86-11.65 725.04-14.33 726.21-17 728.14-19.07 730.06-21.15 732.54-22.43 735.01-23.7 737.66-23.7L737.66-23.7Q740.26-23.7 741.66-22.4 743.06-21.1 743.06-18.7L743.06-18.7Q743.06-17.55 742.74-16.48 742.41-15.4 741.89-14.55 741.36-13.7 740.66-13.18 739.96-12.65 739.26-12.65L739.26-12.65Q738.66-12.65 738.04-13.03 737.41-13.4 737.01-14L737.01-14Q740.36-17.05 740.36-19.55L740.36-19.55Q740.36-21 739.21-21L739.21-21Q738.21-21 736.71-20.05 735.21-19.1 733.81-17.55L733.81-17.55Q731.66-15.15 730.54-12.23 729.41-9.3 729.41-6.1L729.41-6.1Q729.41-2.05 731.21-1.25L731.21-1.25Q731.96-1.35 732.96-1.7 733.96-2.05 735.11-2.63 736.26-3.2 737.49-3.95 738.71-4.7 739.86-5.55L739.86-5.55Q740.06-5.4 740.21-5.1 740.36-4.8 740.36-4.55L740.36-4.55Q739.51-3.5 738.41-2.5 737.31-1.5 736.11-0.68 734.91 0.15 733.79 0.73 732.66 1.3 731.81 1.45L731.81 1.45Q730.16 1.3 728.71 0.43 727.26-0.45 726.19-1.85 725.11-3.25 724.49-5.05 723.86-6.85 723.86-8.8ZM762.46-20.7L762.46-20.7Q762.26-17.6 761.36-15.38 760.46-13.15 758.79-11.48 757.11-9.8 754.71-8.45 752.31-7.1 749.11-5.85L749.11-5.85Q749.11-5.55 749.09-5.23 749.06-4.9 749.06-4.55L749.06-4.55Q749.06-3.9 749.16-3.2 749.26-2.5 749.51-1.9 749.76-1.3 750.21-0.93 750.66-0.55 751.36-0.55L751.36-0.55Q752.71-0.55 754.01-1.15 755.31-1.75 756.49-2.63 757.66-3.5 758.69-4.53 759.71-5.55 760.51-6.4L760.51-6.4Q761.01-5.95 761.36-5.55L761.36-5.55Q759.11-2.55 756.44-0.58 753.76 1.4 751.36 1.95L751.36 1.95Q747.91 1.55 745.99-0.58 744.06-2.7 744.06-5.7L744.06-5.7Q744.06-7.75 744.64-9.88 745.21-12 746.24-13.98 747.26-15.95 748.64-17.7 750.01-19.45 751.59-20.75 753.16-22.05 754.84-22.8 756.51-23.55 758.16-23.55L758.16-23.55Q760.46-23.25 762.46-20.7ZM759.01-19.05L759.01-19.05Q757.66-18.85 756.21-17.95 754.76-17.05 753.49-15.55 752.21-14.05 751.16-12.05 750.11-10.05 749.51-7.75L749.51-7.75Q753.51-9.75 756.16-12.68 758.81-15.6 759.01-19.05ZM782.01-19.9L782.01-19.9Q781.96-18.95 781.68-17.93 781.41-16.9 781.01-16.07 780.61-15.25 780.16-14.7 779.71-14.15 779.31-14.15L779.31-14.15Q778.76-14.2 778.66-14.9L778.66-14.9Q778.66-15.05 778.78-15.38 778.91-15.7 779.06-16.1 779.21-16.5 779.33-16.9 779.46-17.3 779.46-17.6L779.46-17.6Q779.46-18.3 779.13-18.78 778.81-19.25 778.26-19.25L778.26-19.25Q776.26-19.25 775.21-16.75 774.16-14.25 774.16-9.4L774.16-9.4Q774.16-8.9 774.21-8.8L774.21-8.8Q775.26-8.85 776.08-8.88 776.91-8.9 777.71-8.9L777.71-8.9Q777.76-8.8 777.76-8.5L777.76-8.5Q777.76-8.05 777.56-7.85L777.56-7.85Q776.41-7.6 775.73-7.43 775.06-7.25 774.71-7.1 774.36-6.95 774.28-6.78 774.21-6.6 774.21-6.3L774.21-6.3Q774.21-5.9 774.23-5.5 774.26-5.1 774.26-4.5L774.26-4.5Q774.26-0.3 771.98 2.25 769.71 4.8 765.66 5.2L765.66 5.2Q764.96 5.15 764.21 4.8 763.46 4.45 762.78 3.9 762.11 3.35 761.61 2.68 761.11 2 760.91 1.3L760.91 1.3Q760.91-0.6 761.71-2.33 762.51-4.05 763.88-5.38 765.26-6.7 767.13-7.53 769.01-8.35 771.21-8.5L771.21-8.5Q771.21-9.75 770.96-10.95 770.71-12.15 770.43-13.28 770.16-14.4 769.91-15.48 769.66-16.55 769.66-17.6L769.66-17.6Q769.66-18.95 770.21-20.28 770.76-21.6 771.66-22.73 772.56-23.85 773.76-24.65 774.96-25.45 776.26-25.75L776.26-25.75Q776.81-25.6 777.73-24.88 778.66-24.15 779.56-23.25 780.46-22.35 781.16-21.43 781.86-20.5 782.01-19.9ZM765.51 2.9L765.51 2.9Q766.71 2.4 767.78 1.45 768.86 0.5 769.66-0.7 770.46-1.9 770.93-3.25 771.41-4.6 771.41-5.9L771.41-5.9Q770.41-5.75 769.21-4.98 768.01-4.2 766.96-3.13 765.91-2.05 765.21-0.9 764.51 0.25 764.51 1.1L764.51 1.1Q764.51 2.2 765.51 2.9Z" opacity="1" transform="matrix(1,0,0,1,0,0)" fill="#ffffff" class="undefined-text-1" data-fill-palette-color="secondary" id="text-1"></path></svg></g></svg></g></svg></g></svg></g><g><svg viewBox="0 0 108.67609100217274 100.1982834376991" height="100.1982834376991" width="108.67609100217274"><g><svg xmlns="http://www.w3.org/2000/svg" xmlns:xlink="http://www.w3.org/1999/xlink" version="1.1" x="0" y="0" viewBox="5.286161422729492 8.77637004852295 89.427001953125 82.45081329345703" enable-background="new 0 0 100 100" xml:space="preserve" height="100.1982834376991" width="108.67609100217274" class="icon-icon-0" data-fill-palette-color="accent" id="icon-0"></svg></g></svg></g></svg></g><defs><linearGradient x1="0" x2="1" y1="0.5" y2="0.5" id="1caed6fd-971e-4f27-b321-0f8accb1c8f7"><stop stop-color="#fff72e" offset="0"></stop><stop stop-color="#deae29" offset="1"></stop></linearGradient></defs><mask id="b2b4be9c-fe9f-4472-91d4-68f60be23181"><g id="SvgjsG2847"><svg viewBox="0 0 395.52 73.38353467321467" height="73.38353467321467" width="395.52"><g><svg viewBox="0 0 540.0451919052086 100.1982834376991" height="73.38353467321467" width="395.52"><g></g><g transform="matrix(1,0,0,1,144.52519190520866,1.7642244792455557)"><svg viewBox="0 0 395.52 96.66983447920799" height="96.66983447920799" width="395.52"><g id="SvgjsG2845"><svg viewBox="0 0 395.52 96.66983447920799" height="96.66983447920799" width="395.52" id="SvgjsSvg2844"><g><svg viewBox="0 0 395.52 63.75065817409766" height="63.75065817409766" width="395.52"><g transform="matrix(1,0,0,1,0,0)"><svg width="395.52" viewBox="3.700000047683716 -41.5 285.3199768066406 45.54999923706055" height="63.75065817409766" data-palette-color="#ffdc00"><g class="undefined-text-0" data-fill-palette-color="primary" id="SvgjsG2843"></g></svg></g></svg></g><g transform="matrix(1,0,0,1,0,78.80065855320593)"><svg viewBox="0 0 232.20979200000002 17.869175926002058" height="17.869175926002058" width="232.20979200000002"><g transform="matrix(1,0,0,1,0,0)"><svg width="232.20979200000002" viewBox="3.700000047683716 -41.54999923706055 778.3099975585938 59.900001525878906" height="17.869175926002058" data-palette-color="#ffffff"></svg></g></svg></g></svg></g></svg></g><g><svg viewBox="0 0 108.67609100217274 100.1982834376991" height="100.1982834376991" width="108.67609100217274"><g><svg xmlns="http://www.w3.org/2000/svg" xmlns:xlink="http://www.w3.org/1999/xlink" version="1.1" x="0" y="0" viewBox="5.286161422729492 8.77637004852295 89.427001953125 82.45081329345703" enable-background="new 0 0 100 100" xml:space="preserve" height="100.1982834376991" width="108.67609100217274" class="icon-icon-0" data-fill-palette-color="accent" id="SvgjsSvg2841"><g fill="white"><path d="M94.486 69.2c-0.97-3.65-4.712-5.828-8.363-4.861-3.649 0.964-5.829 4.7-4.864 8.357 0.967 3.651 4.707 5.831 8.36 4.863C93.271 76.592 95.447 72.852 94.486 69.2zM88.673 73.976c-1.676 0.445-3.391-0.553-3.831-2.229-0.442-1.668 0.555-3.387 2.23-3.83 1.671-0.442 3.389 0.556 3.83 2.23C91.345 71.821 90.349 73.538 88.673 73.976z" fill="white"></path><path d="M59.877 70.979c-3.653 0.963-5.833 4.703-4.866 8.361 0.966 3.653 4.709 5.827 8.362 4.862 3.652-0.965 5.831-4.708 4.865-8.362C67.271 72.191 63.527 70.013 59.877 70.979zM62.376 80.437c-1.571 0.42-3.183-0.521-3.6-2.095-0.416-1.575 0.524-3.183 2.097-3.599 1.571-0.417 3.181 0.52 3.597 2.095C64.889 78.411 63.948 80.022 62.376 80.437z" fill="white"></path><path d="M81.396 75.567c-0.59-0.653-1.819-2.281-1.943-4.729-0.072-1.381 0.194-3.025 1.143-4.954 0.083-0.17 0.073-0.383-0.026-0.546-0.105-0.168-0.289-0.271-0.488-0.271-8.94 0.002-14.969 0.073-18.935-0.078-3.973-0.117-5.87-0.579-6.384-1.198-0.797-0.834-1.254-1.498-1.874-2.021-0.625-0.531-1.432-0.821-2.583-0.82-0.102 0-0.21 0.002-0.33 0.008-1.208 0.063-3.198 0.503-4.896 1.948-1.704 1.443-3.02 3.918-2.812 7.778 0.04 0.77 0.139 1.582 0.301 2.464l0.089 0.219c1.089 1.589 3.025 3.115 4.895 4.279 1.907 1.152 3.584 1.944 4.652 1.931 0.266 0.003 0.718-0.144 0.858-0.592l0.016-0.264c0 0-0.026-0.162-0.044-0.486-0.045-1.767 0.129-7.345 8.083-9.16 0.617-0.141 1.192-0.218 1.719-0.247 2.708-0.126 4.367 1.001 5.492 2.612 1.111 1.604 1.592 3.72 1.678 5.357 0.034 0.638 0.002 1.209-0.061 1.627-0.033 0.203-0.073 0.374-0.113 0.492-0.021 0.053-0.041 0.098-0.052 0.116l-0.01 0.018c-0.185 0.184-0.218 0.472-0.086 0.692 0.109 0.188 0.311 0.292 0.521 0.283C70.248 80.02 70.29 80.013 70.33 80c7.294-2.121 11.134-3.14 11.145-3.141 0.207-0.059 0.363-0.22 0.407-0.43 0.049-0.203-0.021-0.422-0.183-0.561C81.699 75.869 81.59 75.778 81.396 75.567z" fill="white"></path><path d="M62.014 63.491c0.041 0.008 3.278 0.332 17.62 0.276 0.009 0 0.022 0 0.032-0.001 0.142-0.007 0.273-0.067 0.375-0.17 0.104-0.105 0.165-0.253 0.161-0.405 0-0.102-0.003-0.202-0.01-0.312-0.082-1.546-0.766-3.329-2.304-4.692-1.532-1.364-3.897-2.256-7.206-2.082-0.285 0.014-0.575 0.039-0.873 0.067-3.774 0.376-5.911 2.034-7.031 3.609-1.126 1.574-1.269 3.029-1.275 3.091C61.474 63.185 61.704 63.464 62.014 63.491z" fill="white"></path><path d="M18.374 25.008c3.601-0.956 5.747-4.644 4.794-8.241-0.21-0.795-0.558-1.513-1.004-2.148-0.033-1.82-1.288-3.888-1.288-3.888-1.617-2.583-3.942-1.972-5.099-1.661-1.164 0.304-5.947 1.017-6.212 3.553-0.26 2.539 0.524 3.156-1.169 4.974-1.696 1.818-4.688 3.429-2.093 3.838 1.431 0.227 3.1 0.641 4.727 0.765C12.58 24.548 15.506 25.767 18.374 25.008z" fill="white"></path><path d="M44.092 80.827l0.007-0.006c0 0-0.008-0.009-0.02-0.023-0.254-0.57-0.657-1.04-1.152-1.375-4.174-4.992-18.121-21.777-18.663-23.83-0.521-1.973 0.213-7.053 0.576-12.821 0.766 0.923 1.965 1.817 3.823 2.106 3.003 0.465 6.457 0.748 8.276 0.877 0.291 0.104 0.603 0.15 0.921 0.14 0.047 0.053 0.088 0.108 0.141 0.156l18.966 17.1c0.407 0.369 0.925 0.539 1.439 0.508 0.506-0.023 1.007-0.247 1.379-0.657 0.736-0.817 0.671-2.081-0.146-2.817L40.671 43.083c-0.127-0.114-0.267-0.201-0.41-0.276-0.008-0.034-0.012-0.066-0.021-0.1-0.361-1.356-1.748-2.165-3.105-1.813-1.342 0.118-5.626 0.404-6.355-0.706-0.634-0.967-3.475-6.609-6.642-9.825-0.103-0.191-0.214-0.367-0.339-0.527-0.443-0.567-1.02-0.953-1.774-1.279-2.62-1.111-4.984-1.264-4.984-1.264-5.334-0.65-7.127 1.371-7.396 8.157-0.231 5.737-4.138 40.597-2.558 52.403 0.011 0.25 0.046 0.503 0.112 0.755 0.48 1.808 2.276 2.905 4.085 2.554 0.699 0.027 1.335-0.2 1.846-0.996 0.618-0.635 0.986-1.487 1.004-2.392 0.904-2.947 1.456-7.186 1.973-10.788 0.995-6.974 2.056-11.256 2.056-11.256l20.09 18.035c0.72 1.252 2.213 1.923 3.675 1.537 1.751-0.467 2.794-2.257 2.331-4.004C44.215 81.133 44.156 80.978 44.092 80.827z" fill="white"></path></g></svg></g></svg></g></svg></g><defs><linearGradient x1="0" x2="1" y1="0.5" y2="0.5" id="SvgjsLinearGradient2840"><stop stop-color="#fff72e" offset="0"></stop><stop stop-color="#deae29" offset="1"></stop></linearGradient><mask></mask></defs></svg></g></mask></svg><rect width="395.52" height="73.38353467321467" fill="none" stroke="none" visibility="hidden"></rect></g></svg></g></svg>